<svg width="206" height="32" viewBox="0 0 206 32" fill="none" xmlns="http://www.w3.org/2000/svg">
<rect x="93.5" y="1.43503" width="110.888" height="29" fill="#DF135C" stroke="#1E293B"/>
<path d="M95 0.0431442H92V3.04314H95V0.0431442Z" fill="#1E293B"/>
<path d="M95 29H92V32H95V29Z" fill="#1E293B"/>
<path d="M206 29H203V32H206V29Z" fill="#1E293B"/>
<path d="M206 0.0431442H203V3.04314H206V0.0431442Z" fill="#1E293B"/>
<path d="M8.586 21.935L8.154 20.405H3.69L3.258 21.935H0.18L4.446 9.33503H7.38L11.664 21.935H8.586ZM4.338 18.119H7.506L5.922 12.521L4.338 18.119ZM18.9979 9.33503H21.7519V21.935H19.0159V20.711C18.7759 21.143 18.4039 21.497 17.8999 21.773C17.4079 22.037 16.8619 22.169 16.2619 22.169C15.0019 22.169 14.0059 21.743 13.2739 20.891C12.5419 20.039 12.1759 18.941 12.1759 17.597C12.1759 16.277 12.5539 15.185 13.3099 14.321C14.0659 13.457 15.0619 13.025 16.2979 13.025C16.9099 13.025 17.4559 13.157 17.9359 13.421C18.4159 13.685 18.7759 14.045 19.0159 14.501V13.763H18.9979V9.33503ZM17.0539 19.883C17.7139 19.883 18.2239 19.667 18.5839 19.235C18.9439 18.803 19.1239 18.257 19.1239 17.597C19.1239 16.949 18.9439 16.409 18.5839 15.977C18.2239 15.545 17.7139 15.329 17.0539 15.329C16.4299 15.329 15.9259 15.539 15.5419 15.959C15.1699 16.379 14.9839 16.925 14.9839 17.597C14.9839 18.269 15.1699 18.821 15.5419 19.253C15.9259 19.673 16.4299 19.883 17.0539 19.883ZM30.2303 9.33503H32.9843V21.935H30.2483V20.711C30.0083 21.143 29.6363 21.497 29.1323 21.773C28.6403 22.037 28.0943 22.169 27.4943 22.169C26.2343 22.169 25.2383 21.743 24.5063 20.891C23.7743 20.039 23.4083 18.941 23.4083 17.597C23.4083 16.277 23.7863 15.185 24.5423 14.321C25.2983 13.457 26.2943 13.025 27.5303 13.025C28.1423 13.025 28.6883 13.157 29.1683 13.421C29.6483 13.685 30.0083 14.045 30.2483 14.501V13.763H30.2303V9.33503ZM28.2863 19.883C28.9463 19.883 29.4563 19.667 29.8163 19.235C30.1763 18.803 30.3563 18.257 30.3563 17.597C30.3563 16.949 30.1763 16.409 29.8163 15.977C29.4563 15.545 28.9463 15.329 28.2863 15.329C27.6623 15.329 27.1583 15.539 26.7743 15.959C26.4023 16.379 26.2163 16.925 26.2163 17.597C26.2163 18.269 26.4023 18.821 26.7743 19.253C27.1583 19.673 27.6623 19.883 28.2863 19.883ZM37.8807 11.999C37.5567 12.323 37.1487 12.485 36.6567 12.485C36.1647 12.485 35.7567 12.323 35.4327 11.999C35.1207 11.675 34.9647 11.279 34.9647 10.811C34.9647 10.331 35.1207 9.92903 35.4327 9.60503C35.7567 9.28103 36.1647 9.11903 36.6567 9.11903C37.1487 9.11903 37.5567 9.28703 37.8807 9.62303C38.2047 9.94703 38.3667 10.343 38.3667 10.811C38.3667 11.279 38.2047 11.675 37.8807 11.999ZM35.2707 21.935V13.259H38.0247V21.935H35.2707ZM44.8521 19.793C45.2361 19.793 45.5541 19.775 45.8061 19.739V21.935C45.2781 22.031 44.6661 22.079 43.9701 22.079C43.6581 22.079 43.3821 22.061 43.1421 22.025C42.9021 21.989 42.6321 21.911 42.3321 21.791C42.0321 21.659 41.7861 21.485 41.5941 21.269C41.4021 21.053 41.2341 20.741 41.0901 20.333C40.9581 19.925 40.8921 19.445 40.8921 18.893V15.437H39.5241V13.259H40.8921V10.685H43.6461V13.259H45.6081V15.437H43.6461V18.317C43.6461 18.905 43.7481 19.301 43.9521 19.505C44.1561 19.697 44.4561 19.793 44.8521 19.793ZM49.992 11.999C49.668 12.323 49.26 12.485 48.768 12.485C48.276 12.485 47.868 12.323 47.544 11.999C47.232 11.675 47.076 11.279 47.076 10.811C47.076 10.331 47.232 9.92903 47.544 9.60503C47.868 9.28103 48.276 9.11903 48.768 9.11903C49.26 9.11903 49.668 9.28703 49.992 9.62303C50.316 9.94703 50.478 10.343 50.478 10.811C50.478 11.279 50.316 11.675 49.992 11.999ZM47.382 21.935V13.259H50.136V21.935H47.382ZM60.0414 20.909C59.1774 21.773 58.0134 22.205 56.5494 22.205C55.0854 22.205 53.9154 21.773 53.0394 20.909C52.1634 20.045 51.7254 18.941 51.7254 17.597C51.7254 16.253 52.1634 15.155 53.0394 14.303C53.9154 13.439 55.0854 13.007 56.5494 13.007C58.0134 13.007 59.1774 13.439 60.0414 14.303C60.9174 15.155 61.3554 16.253 61.3554 17.597C61.3554 18.941 60.9174 20.045 60.0414 20.909ZM56.5494 19.865C57.1854 19.865 57.6894 19.655 58.0614 19.235C58.4334 18.815 58.6194 18.269 58.6194 17.597C58.6194 16.925 58.4334 16.379 58.0614 15.959C57.6894 15.539 57.1854 15.329 56.5494 15.329C55.9014 15.329 55.3914 15.539 55.0194 15.959C54.6594 16.379 54.4794 16.925 54.4794 17.597C54.4794 18.269 54.6594 18.815 55.0194 19.235C55.3914 19.655 55.9014 19.865 56.5494 19.865ZM62.9387 21.935V13.259H65.6927V14.519C66.2087 13.523 67.1447 13.025 68.5007 13.025C70.6127 13.025 71.6687 14.207 71.6687 16.571V21.935H68.8967V17.471C68.8967 16.727 68.7767 16.187 68.5367 15.851C68.3087 15.515 67.9187 15.347 67.3667 15.347C66.2507 15.347 65.6927 16.031 65.6927 17.399V21.935H62.9387ZM77.3283 22.169C76.0683 22.169 75.0723 21.743 74.3403 20.891C73.6083 20.039 73.2423 18.941 73.2423 17.597C73.2423 16.277 73.6203 15.185 74.3763 14.321C75.1323 13.457 76.1283 13.025 77.3643 13.025C77.9763 13.025 78.5223 13.157 79.0023 13.421C79.4823 13.685 79.8423 14.045 80.0823 14.501V13.259H82.8183V21.935H80.0823V20.711C79.8423 21.143 79.4703 21.497 78.9663 21.773C78.4743 22.037 77.9283 22.169 77.3283 22.169ZM78.1203 19.883C78.7803 19.883 79.2903 19.667 79.6503 19.235C80.0103 18.803 80.1903 18.257 80.1903 17.597C80.1903 16.949 80.0103 16.409 79.6503 15.977C79.2903 15.545 78.7803 15.329 78.1203 15.329C77.4963 15.329 76.9923 15.539 76.6083 15.959C76.2363 16.379 76.0503 16.925 76.0503 17.597C76.0503 18.269 76.2363 18.821 76.6083 19.253C76.9923 19.673 77.4963 19.883 78.1203 19.883ZM85.1047 21.935V9.33503H87.8587V21.935H85.1047ZM98.976 21.935V9.33503H101.892V21.935H98.976ZM104.247 21.935V13.259H107.001V14.519C107.517 13.523 108.453 13.025 109.809 13.025C111.921 13.025 112.977 14.207 112.977 16.571V21.935H110.205V17.471C110.205 16.727 110.085 16.187 109.845 15.851C109.617 15.515 109.227 15.347 108.675 15.347C107.559 15.347 107.001 16.031 107.001 17.399V21.935H104.247ZM119.792 11.279C118.952 11.279 118.532 11.645 118.532 12.377V13.259H120.548V15.437H118.532V21.935H115.778V15.437H114.23V13.259H115.778V12.413C115.778 11.777 115.88 11.237 116.084 10.793C116.288 10.337 116.558 10.001 116.894 9.78503C117.23 9.56903 117.566 9.41303 117.902 9.31703C118.238 9.22103 118.592 9.17303 118.964 9.17303C119.6 9.17303 120.128 9.23903 120.548 9.37103V11.333C120.488 11.333 120.368 11.327 120.188 11.315C120.02 11.291 119.888 11.279 119.792 11.279ZM129.422 20.909C128.558 21.773 127.394 22.205 125.93 22.205C124.466 22.205 123.296 21.773 122.42 20.909C121.544 20.045 121.106 18.941 121.106 17.597C121.106 16.253 121.544 15.155 122.42 14.303C123.296 13.439 124.466 13.007 125.93 13.007C127.394 13.007 128.558 13.439 129.422 14.303C130.298 15.155 130.736 16.253 130.736 17.597C130.736 18.941 130.298 20.045 129.422 20.909ZM125.93 19.865C126.566 19.865 127.07 19.655 127.442 19.235C127.814 18.815 128 18.269 128 17.597C128 16.925 127.814 16.379 127.442 15.959C127.07 15.539 126.566 15.329 125.93 15.329C125.282 15.329 124.772 15.539 124.4 15.959C124.04 16.379 123.86 16.925 123.86 17.597C123.86 18.269 124.04 18.815 124.4 19.235C124.772 19.655 125.282 19.865 125.93 19.865ZM132.32 21.935V13.259H135.074V15.077C135.218 14.453 135.512 13.973 135.956 13.637C136.412 13.289 136.916 13.115 137.468 13.115C137.756 13.115 137.996 13.139 138.188 13.187V15.743C137.864 15.707 137.588 15.689 137.36 15.689C135.836 15.689 135.074 16.655 135.074 18.587V21.935H132.32ZM139.667 21.935V13.259H142.421V14.519C142.613 14.075 142.925 13.715 143.357 13.439C143.801 13.163 144.317 13.025 144.905 13.025C146.273 13.025 147.179 13.559 147.623 14.627C147.863 14.147 148.229 13.763 148.721 13.475C149.213 13.175 149.771 13.025 150.395 13.025C152.447 13.025 153.473 14.201 153.473 16.553V21.935H150.701V17.057C150.701 15.917 150.269 15.347 149.405 15.347C148.433 15.347 147.947 16.055 147.947 17.471V21.935H145.175V17.039C145.175 15.911 144.749 15.347 143.897 15.347C143.417 15.347 143.051 15.509 142.799 15.833C142.547 16.145 142.421 16.691 142.421 17.471V21.935H139.667ZM159.102 22.169C157.842 22.169 156.846 21.743 156.114 20.891C155.382 20.039 155.016 18.941 155.016 17.597C155.016 16.277 155.394 15.185 156.15 14.321C156.906 13.457 157.902 13.025 159.138 13.025C159.75 13.025 160.296 13.157 160.776 13.421C161.256 13.685 161.616 14.045 161.856 14.501V13.259H164.592V21.935H161.856V20.711C161.616 21.143 161.244 21.497 160.74 21.773C160.248 22.037 159.702 22.169 159.102 22.169ZM159.894 19.883C160.554 19.883 161.064 19.667 161.424 19.235C161.784 18.803 161.964 18.257 161.964 17.597C161.964 16.949 161.784 16.409 161.424 15.977C161.064 15.545 160.554 15.329 159.894 15.329C159.27 15.329 158.766 15.539 158.382 15.959C158.01 16.379 157.824 16.925 157.824 17.597C157.824 18.269 158.01 18.821 158.382 19.253C158.766 19.673 159.27 19.883 159.894 19.883ZM171.432 19.793C171.816 19.793 172.134 19.775 172.386 19.739V21.935C171.858 22.031 171.246 22.079 170.55 22.079C170.238 22.079 169.962 22.061 169.722 22.025C169.482 21.989 169.212 21.911 168.912 21.791C168.612 21.659 168.366 21.485 168.174 21.269C167.982 21.053 167.814 20.741 167.67 20.333C167.538 19.925 167.472 19.445 167.472 18.893V15.437H166.104V13.259H167.472V10.685H170.226V13.259H172.188V15.437H170.226V18.317C170.226 18.905 170.328 19.301 170.532 19.505C170.736 19.697 171.036 19.793 171.432 19.793ZM176.572 11.999C176.248 12.323 175.84 12.485 175.348 12.485C174.856 12.485 174.448 12.323 174.124 11.999C173.812 11.675 173.656 11.279 173.656 10.811C173.656 10.331 173.812 9.92903 174.124 9.60503C174.448 9.28103 174.856 9.11903 175.348 9.11903C175.84 9.11903 176.248 9.28703 176.572 9.62303C176.896 9.94703 177.058 10.343 177.058 10.811C177.058 11.279 176.896 11.675 176.572 11.999ZM173.962 21.935V13.259H176.716V21.935H173.962ZM186.621 20.909C185.757 21.773 184.593 22.205 183.129 22.205C181.665 22.205 180.495 21.773 179.619 20.909C178.743 20.045 178.305 18.941 178.305 17.597C178.305 16.253 178.743 15.155 179.619 14.303C180.495 13.439 181.665 13.007 183.129 13.007C184.593 13.007 185.757 13.439 186.621 14.303C187.497 15.155 187.935 16.253 187.935 17.597C187.935 18.941 187.497 20.045 186.621 20.909ZM183.129 19.865C183.765 19.865 184.269 19.655 184.641 19.235C185.013 18.815 185.199 18.269 185.199 17.597C185.199 16.925 185.013 16.379 184.641 15.959C184.269 15.539 183.765 15.329 183.129 15.329C182.481 15.329 181.971 15.539 181.599 15.959C181.239 16.379 181.059 16.925 181.059 17.597C181.059 18.269 181.239 18.815 181.599 19.235C181.971 19.655 182.481 19.865 183.129 19.865ZM189.519 21.935V13.259H192.273V14.519C192.789 13.523 193.725 13.025 195.081 13.025C197.193 13.025 198.249 14.207 198.249 16.571V21.935H195.477V17.471C195.477 16.727 195.357 16.187 195.117 15.851C194.889 15.515 194.499 15.347 193.947 15.347C192.831 15.347 192.273 16.031 192.273 17.399V21.935H189.519Z" fill="#1E293B"/>
</svg>
