<svg width="192" height="91" viewBox="0 0 192 91" fill="none" xmlns="http://www.w3.org/2000/svg">
<g clip-path="url(#clip0_19_62)">
<path d="M-1 37.2479C-1 37.2479 11.9038 56.7585 20.5063 62.3329C29.1089 67.9074 33.4102 67.9074 42.0127 67.9074C50.6152 67.9074 54.9165 54.5287 63.519 42.8224C72.1216 31.116 76.4228 9.37572 85.0254 9.37572C93.6279 9.37572 97.9292 21.8253 106.532 27.9572C115.134 34.0891 119.436 40.0352 128.038 40.0352C136.641 40.0352 140.942 0.0849762 149.544 0.0849762C158.147 0.0849762 162.448 75.34 171.051 75.34C179.653 75.34 192.557 50.255 192.557 50.255V91.1342C192.557 91.1342 179.653 91.1342 171.051 91.1342C162.448 91.1342 158.147 91.1342 149.544 91.1342C140.942 91.1342 136.641 91.1342 128.038 91.1342C119.436 91.1342 115.134 91.1342 106.532 91.1342C97.9292 91.1342 93.6279 91.1342 85.0254 91.1342C76.4228 91.1342 72.1216 91.1342 63.519 91.1342C54.9165 91.1342 50.6152 91.1342 42.0127 91.1342C33.4102 91.1342 29.1089 91.1342 20.5063 91.1342C11.9038 91.1342 -1 91.1342 -1 91.1342V37.2479Z" fill="#F297D3" fill-opacity="0.8"/>
<path d="M-1 30.7444C-1 30.7444 11.9038 78.1272 20.5063 78.1272C29.1089 78.1272 33.4102 27.0281 42.0127 27.0281C50.6152 27.0281 54.9165 66.0493 63.519 66.0493C72.1216 66.0493 76.4228 35.3898 85.0254 35.3898C93.6279 35.3898 97.9292 79.0563 106.532 79.9854C115.134 80.9144 119.436 80.9144 128.038 80.9144C136.641 80.9144 140.942 14.9502 149.544 14.9502C158.147 14.9502 162.448 61.4039 171.051 61.4039C179.653 61.4039 192.557 54.9004 192.557 54.9004V91.1343C192.557 91.1343 179.653 91.1343 171.051 91.1343C162.448 91.1343 158.147 91.1343 149.544 91.1343C140.942 91.1343 136.641 91.1343 128.038 91.1343C119.436 91.1343 115.134 91.1343 106.532 91.1343C97.9292 91.1343 93.6279 91.1343 85.0254 91.1343C76.4228 91.1343 72.1216 91.1343 63.519 91.1343C54.9165 91.1343 50.6152 91.1343 42.0127 91.1343C33.4102 91.1343 29.1089 91.1343 20.5063 91.1343C11.9038 91.1343 -1 91.1343 -1 91.1343V30.7444Z" fill="#461FB4" fill-opacity="0.8"/>
<path d="M-1 76.2691C-1 76.2691 11.9038 47.6536 20.5063 33.5317C29.1089 19.4097 33.4102 5.65944 42.0127 5.65944C50.6152 5.65944 54.9165 57.6876 63.519 57.6876C72.1216 57.6876 76.4228 24.2409 85.0254 24.2409C93.6279 24.2409 97.9292 69.7656 106.532 69.7656C115.134 69.7656 119.436 13.092 128.038 13.092C136.641 13.092 140.942 13.4637 149.544 27.0281C158.147 40.5926 162.448 80.9144 171.051 80.9144C179.653 80.9144 192.557 6.58851 192.557 6.58851V91.1343C192.557 91.1343 179.653 91.1343 171.051 91.1343C162.448 91.1343 158.147 91.1343 149.544 91.1343C140.942 91.1343 136.641 91.1343 128.038 91.1343C119.436 91.1343 115.134 91.1343 106.532 91.1343C97.9292 91.1343 93.6279 91.1343 85.0254 91.1343C76.4228 91.1343 72.1216 91.1343 63.519 91.1343C54.9165 91.1343 50.6152 91.1343 42.0127 91.1343C33.4102 91.1343 29.1089 91.1343 20.5063 91.1343C11.9038 91.1343 -1 91.1343 -1 91.1343V76.2691Z" fill="#A08ADF" fill-opacity="0.8"/>
</g>
<defs>
<clipPath id="clip0_19_62">
<rect width="192" height="91" fill="white"/>
</clipPath>
</defs>
</svg>
