<svg width="201" height="92" viewBox="0 0 201 92" fill="none" xmlns="http://www.w3.org/2000/svg">
<line x1="11.4302" y1="89.5109" x2="199.352" y2="89.5109" stroke="#EEEDF3" stroke-dasharray="2 2"/>
<rect opacity="0.2" x="0.990143" y="48.2985" width="13.1875" height="41.7124" rx="6.59373" fill="#A9A4C2"/>
<rect opacity="0.2" x="19.6724" y="55.9824" width="13.1875" height="34.0285" rx="6.59373" fill="#A9A4C2"/>
<rect opacity="0.2" x="38.3546" y="4.39077" width="13.1875" height="85.6201" rx="6.59373" fill="#A9A4C2"/>
<rect opacity="0.2" x="57.0369" y="61.4708" width="13.1875" height="28.54" rx="6.59373" fill="#A9A4C2"/>
<rect opacity="0.2" x="75.7191" y="10.9769" width="13.1875" height="79.0339" rx="6.59373" fill="#A9A4C2"/>
<rect opacity="0.2" x="94.4013" width="13.1875" height="90.0109" rx="6.59373" fill="#A9A4C2"/>
<rect opacity="0.2" x="113.084" y="30.7354" width="13.1875" height="59.2755" rx="6.59373" fill="#A9A4C2"/>
<rect opacity="0.2" x="131.766" y="59.2755" width="13.1875" height="30.7354" rx="6.59373" fill="#A9A4C2"/>
<rect opacity="0.2" x="150.448" y="20.8562" width="13.1875" height="69.1547" rx="6.59373" fill="#A9A4C2"/>
<rect opacity="0.2" x="169.13" y="18.6608" width="13.1875" height="71.3501" rx="6.59373" fill="#A9A4C2"/>
<rect opacity="0.2" x="187.813" y="42.81" width="13.1875" height="47.2008" rx="6.59373" fill="#A9A4C2"/>
<path d="M1.53963 60.6554C1.53963 60.6554 14.5944 90.0109 23.2976 90.0109C32.0008 90.0109 36.3524 32.429 45.0556 32.429C53.7588 32.429 58.1104 85.4946 66.8136 85.4946C75.5168 85.4946 79.8684 35.8162 88.5716 34.6871C97.2748 33.5581 101.626 33.5581 110.33 33.5581C119.033 33.5581 123.384 57.7199 132.088 68.5588C140.791 79.3977 145.142 87.7528 153.846 87.7528C162.549 87.7528 166.9 10.9769 175.604 10.9769C184.307 10.9769 199.352 79.6505 199.352 79.6505" stroke="#FF679D" stroke-width="2"/>
</svg>
