<svg width="142" height="32" viewBox="0 0 142 32" fill="none" xmlns="http://www.w3.org/2000/svg">
<rect x="89.5" y="1.43503" width="50.6073" height="29" fill="#28DCA6" stroke="#1E293B"/>
<path d="M90.9998 0.0431442H87.9998V3.04314H90.9998V0.0431442Z" fill="#1E293B"/>
<path d="M90.9998 29H87.9998V32H90.9998V29Z" fill="#1E293B"/>
<path d="M141.59 29H138.59V32H141.59V29Z" fill="#1E293B"/>
<path d="M141.59 0.0431442H138.59V3.04314H141.59V0.0431442Z" fill="#1E293B"/>
<path d="M7.254 22.295C5.214 22.295 3.576 21.677 2.34 20.441C1.104 19.193 0.486 17.591 0.486 15.635C0.486 13.679 1.104 12.083 2.34 10.847C3.576 9.59903 5.214 8.97503 7.254 8.97503C9.078 8.97503 10.56 9.42503 11.7 10.325C12.852 11.213 13.512 12.407 13.68 13.907H10.584C10.416 13.187 10.044 12.623 9.468 12.215C8.892 11.795 8.16 11.585 7.272 11.585C6.096 11.585 5.178 11.951 4.518 12.683C3.858 13.403 3.528 14.387 3.528 15.635C3.528 16.883 3.858 17.873 4.518 18.605C5.178 19.325 6.096 19.685 7.272 19.685C8.16 19.685 8.892 19.481 9.468 19.073C10.044 18.653 10.416 18.083 10.584 17.363H13.68C13.512 18.863 12.852 20.063 11.7 20.963C10.56 21.851 9.078 22.295 7.254 22.295ZM18.3457 22.169C17.3137 22.169 16.5217 21.863 15.9697 21.251C15.4177 20.627 15.1417 19.751 15.1417 18.623V13.259H17.9317V18.011C17.9317 19.235 18.4117 19.847 19.3717 19.847C20.4877 19.847 21.0457 19.205 21.0457 17.921V13.259H23.7817V21.935H21.0457V20.693C20.5297 21.677 19.6297 22.169 18.3457 22.169ZM29.5338 22.205C28.2858 22.205 27.2898 21.935 26.5458 21.395C25.8018 20.855 25.4298 20.165 25.4298 19.325H28.1658C28.1658 19.625 28.2978 19.871 28.5618 20.063C28.8258 20.255 29.1678 20.351 29.5878 20.351C29.8878 20.351 30.1278 20.279 30.3078 20.135C30.4998 19.991 30.5958 19.793 30.5958 19.541C30.5958 19.145 30.3858 18.899 29.9658 18.803L27.8418 18.263C27.1338 18.083 26.5938 17.777 26.2218 17.345C25.8498 16.913 25.6638 16.385 25.6638 15.761C25.6638 14.945 25.9998 14.285 26.6718 13.781C27.3438 13.265 28.2438 13.007 29.3718 13.007C30.6198 13.007 31.5738 13.247 32.2338 13.727C32.9058 14.207 33.2418 14.867 33.2418 15.707H30.5238C30.5238 15.407 30.4158 15.173 30.1998 15.005C29.9958 14.837 29.7078 14.753 29.3358 14.753C29.0358 14.753 28.7958 14.819 28.6158 14.951C28.4358 15.083 28.3458 15.257 28.3458 15.473C28.3458 15.857 28.5918 16.115 29.0838 16.247L31.1358 16.805C31.8198 16.985 32.3538 17.285 32.7378 17.705C33.1338 18.113 33.3318 18.617 33.3318 19.217C33.3318 20.117 32.9898 20.843 32.3058 21.395C31.6338 21.935 30.7098 22.205 29.5338 22.205ZM39.4732 19.793C39.8572 19.793 40.1752 19.775 40.4272 19.739V21.935C39.8992 22.031 39.2872 22.079 38.5912 22.079C38.2792 22.079 38.0032 22.061 37.7632 22.025C37.5232 21.989 37.2532 21.911 36.9532 21.791C36.6532 21.659 36.4072 21.485 36.2152 21.269C36.0232 21.053 35.8552 20.741 35.7112 20.333C35.5792 19.925 35.5132 19.445 35.5132 18.893V15.437H34.1452V13.259H35.5132V10.685H38.2672V13.259H40.2292V15.437H38.2672V18.317C38.2672 18.905 38.3692 19.301 38.5732 19.505C38.7772 19.697 39.0772 19.793 39.4732 19.793ZM49.6351 20.909C48.7711 21.773 47.6071 22.205 46.1431 22.205C44.6791 22.205 43.5091 21.773 42.6331 20.909C41.7571 20.045 41.3191 18.941 41.3191 17.597C41.3191 16.253 41.7571 15.155 42.6331 14.303C43.5091 13.439 44.6791 13.007 46.1431 13.007C47.6071 13.007 48.7711 13.439 49.6351 14.303C50.5111 15.155 50.9491 16.253 50.9491 17.597C50.9491 18.941 50.5111 20.045 49.6351 20.909ZM46.1431 19.865C46.7791 19.865 47.2831 19.655 47.6551 19.235C48.0271 18.815 48.2131 18.269 48.2131 17.597C48.2131 16.925 48.0271 16.379 47.6551 15.959C47.2831 15.539 46.7791 15.329 46.1431 15.329C45.4951 15.329 44.9851 15.539 44.6131 15.959C44.2531 16.379 44.0731 16.925 44.0731 17.597C44.0731 18.269 44.2531 18.815 44.6131 19.235C44.9851 19.655 45.4951 19.865 46.1431 19.865ZM52.5324 21.935V13.259H55.2864V14.519C55.4784 14.075 55.7904 13.715 56.2224 13.439C56.6664 13.163 57.1824 13.025 57.7704 13.025C59.1384 13.025 60.0444 13.559 60.4884 14.627C60.7284 14.147 61.0944 13.763 61.5864 13.475C62.0784 13.175 62.6364 13.025 63.2604 13.025C65.3124 13.025 66.3384 14.201 66.3384 16.553V21.935H63.5664V17.057C63.5664 15.917 63.1344 15.347 62.2704 15.347C61.2984 15.347 60.8124 16.055 60.8124 17.471V21.935H58.0404V17.039C58.0404 15.911 57.6144 15.347 56.7624 15.347C56.2824 15.347 55.9164 15.509 55.6644 15.833C55.4124 16.145 55.2864 16.691 55.2864 17.471V21.935H52.5324ZM77.043 17.147C77.043 17.507 77.019 17.909 76.971 18.353H70.563C70.587 18.917 70.779 19.355 71.139 19.667C71.499 19.979 71.985 20.135 72.597 20.135C73.437 20.135 73.977 19.865 74.217 19.325H76.917C76.785 20.177 76.317 20.873 75.513 21.413C74.721 21.941 73.749 22.205 72.597 22.205C71.121 22.205 69.957 21.797 69.105 20.981C68.253 20.165 67.827 19.037 67.827 17.597C67.827 16.181 68.253 15.065 69.105 14.249C69.957 13.421 71.091 13.007 72.507 13.007C73.851 13.007 74.943 13.391 75.783 14.159C76.623 14.927 77.043 15.923 77.043 17.147ZM70.563 16.643H74.325C74.313 16.067 74.151 15.623 73.839 15.311C73.527 14.999 73.077 14.843 72.489 14.843C71.901 14.843 71.433 15.011 71.085 15.347C70.749 15.671 70.575 16.103 70.563 16.643ZM78.6184 21.935V13.259H81.3724V15.077C81.5164 14.453 81.8104 13.973 82.2544 13.637C82.7104 13.289 83.2144 13.115 83.7664 13.115C84.0544 13.115 84.2944 13.139 84.4864 13.187V15.743C84.1624 15.707 83.8864 15.689 83.6584 15.689C82.1344 15.689 81.3724 16.655 81.3724 18.587V21.935H78.6184ZM94.8099 21.935V9.33503H99.5619C101.518 9.33503 103.078 9.94103 104.242 11.153C105.406 12.365 105.988 13.859 105.988 15.635C105.988 17.411 105.406 18.905 104.242 20.117C103.09 21.329 101.53 21.935 99.5619 21.935H94.8099ZM97.7259 19.487H99.2919C100.468 19.487 101.374 19.115 102.01 18.371C102.658 17.615 102.982 16.703 102.982 15.635C102.982 14.567 102.658 13.661 102.01 12.917C101.374 12.161 100.468 11.783 99.2919 11.783H97.7259V19.487ZM111.061 22.169C109.801 22.169 108.805 21.743 108.073 20.891C107.341 20.039 106.975 18.941 106.975 17.597C106.975 16.277 107.353 15.185 108.109 14.321C108.865 13.457 109.861 13.025 111.097 13.025C111.709 13.025 112.255 13.157 112.735 13.421C113.215 13.685 113.575 14.045 113.815 14.501V13.259H116.551V21.935H113.815V20.711C113.575 21.143 113.203 21.497 112.699 21.773C112.207 22.037 111.661 22.169 111.061 22.169ZM111.853 19.883C112.513 19.883 113.023 19.667 113.383 19.235C113.743 18.803 113.923 18.257 113.923 17.597C113.923 16.949 113.743 16.409 113.383 15.977C113.023 15.545 112.513 15.329 111.853 15.329C111.229 15.329 110.725 15.539 110.341 15.959C109.969 16.379 109.783 16.925 109.783 17.597C109.783 18.269 109.969 18.821 110.341 19.253C110.725 19.673 111.229 19.883 111.853 19.883ZM123.391 19.793C123.775 19.793 124.093 19.775 124.345 19.739V21.935C123.817 22.031 123.205 22.079 122.509 22.079C122.197 22.079 121.921 22.061 121.681 22.025C121.441 21.989 121.171 21.911 120.871 21.791C120.571 21.659 120.325 21.485 120.133 21.269C119.941 21.053 119.773 20.741 119.629 20.333C119.497 19.925 119.431 19.445 119.431 18.893V15.437H118.063V13.259H119.431V10.685H122.185V13.259H124.147V15.437H122.185V18.317C122.185 18.905 122.287 19.301 122.491 19.505C122.695 19.697 122.995 19.793 123.391 19.793ZM129.324 22.169C128.064 22.169 127.068 21.743 126.336 20.891C125.604 20.039 125.238 18.941 125.238 17.597C125.238 16.277 125.616 15.185 126.372 14.321C127.128 13.457 128.124 13.025 129.36 13.025C129.972 13.025 130.518 13.157 130.998 13.421C131.478 13.685 131.838 14.045 132.078 14.501V13.259H134.814V21.935H132.078V20.711C131.838 21.143 131.466 21.497 130.962 21.773C130.47 22.037 129.924 22.169 129.324 22.169ZM130.116 19.883C130.776 19.883 131.286 19.667 131.646 19.235C132.006 18.803 132.186 18.257 132.186 17.597C132.186 16.949 132.006 16.409 131.646 15.977C131.286 15.545 130.776 15.329 130.116 15.329C129.492 15.329 128.988 15.539 128.604 15.959C128.232 16.379 128.046 16.925 128.046 17.597C128.046 18.269 128.232 18.821 128.604 19.253C128.988 19.673 129.492 19.883 130.116 19.883Z" fill="#1E293B"/>
</svg>
