<svg width="161" height="32" viewBox="0 0 161 32" fill="none" xmlns="http://www.w3.org/2000/svg">
<rect x="1.5" y="1.43503" width="55.5922" height="29" fill="#9F77E2" stroke="#1E293B"/>
<path d="M3 0H0V3H3V0Z" fill="#1E293B"/>
<path d="M3 28.9569H0V31.9569H3V28.9569Z" fill="#1E293B"/>
<path d="M58.5288 28.9569H55.5288V31.9569H58.5288V28.9569Z" fill="#1E293B"/>
<path d="M58.5288 0H55.5288V3H58.5288V0Z" fill="#1E293B"/>
<path d="M6.224 21.935V9.33503H13.928V11.675H9.14V14.537H13.928V16.823H9.14V19.595H13.928V21.935H6.224ZM18.692 21.935L14.948 13.259H17.99L19.934 18.713L21.878 13.259H24.938L21.176 21.935H18.692ZM34.1426 17.147C34.1426 17.507 34.1186 17.909 34.0706 18.353H27.6626C27.6866 18.917 27.8786 19.355 28.2386 19.667C28.5986 19.979 29.0846 20.135 29.6966 20.135C30.5366 20.135 31.0766 19.865 31.3166 19.325H34.0166C33.8846 20.177 33.4166 20.873 32.6126 21.413C31.8206 21.941 30.8486 22.205 29.6966 22.205C28.2206 22.205 27.0566 21.797 26.2046 20.981C25.3526 20.165 24.9266 19.037 24.9266 17.597C24.9266 16.181 25.3526 15.065 26.2046 14.249C27.0566 13.421 28.1906 13.007 29.6066 13.007C30.9506 13.007 32.0426 13.391 32.8826 14.159C33.7226 14.927 34.1426 15.923 34.1426 17.147ZM27.6626 16.643H31.4246C31.4126 16.067 31.2506 15.623 30.9386 15.311C30.6266 14.999 30.1766 14.843 29.5886 14.843C29.0006 14.843 28.5326 15.011 28.1846 15.347C27.8486 15.671 27.6746 16.103 27.6626 16.643ZM35.718 21.935V13.259H38.472V14.519C38.988 13.523 39.924 13.025 41.28 13.025C43.392 13.025 44.448 14.207 44.448 16.571V21.935H41.676V17.471C41.676 16.727 41.556 16.187 41.316 15.851C41.088 15.515 40.698 15.347 40.146 15.347C39.03 15.347 38.472 16.031 38.472 17.399V21.935H35.718ZM51.0474 19.793C51.4314 19.793 51.7494 19.775 52.0014 19.739V21.935C51.4734 22.031 50.8614 22.079 50.1654 22.079C49.8534 22.079 49.5774 22.061 49.3374 22.025C49.0974 21.989 48.8274 21.911 48.5274 21.791C48.2274 21.659 47.9814 21.485 47.7894 21.269C47.5974 21.053 47.4294 20.741 47.2854 20.333C47.1534 19.925 47.0874 19.445 47.0874 18.893V15.437H45.7194V13.259H47.0874V10.685H49.8414V13.259H51.8034V15.437H49.8414V18.317C49.8414 18.905 49.9434 19.301 50.1474 19.505C50.3514 19.697 50.6514 19.793 51.0474 19.793ZM62.4213 21.935V9.33503H67.1733C69.1293 9.33503 70.6893 9.94103 71.8533 11.153C73.0173 12.365 73.5993 13.859 73.5993 15.635C73.5993 17.411 73.0173 18.905 71.8533 20.117C70.7013 21.329 69.1413 21.935 67.1733 21.935H62.4213ZM65.3373 19.487H66.9033C68.0793 19.487 68.9853 19.115 69.6213 18.371C70.2693 17.615 70.5933 16.703 70.5933 15.635C70.5933 14.567 70.2693 13.661 69.6213 12.917C68.9853 12.161 68.0793 11.783 66.9033 11.783H65.3373V19.487ZM83.7832 17.147C83.7832 17.507 83.7592 17.909 83.7112 18.353H77.3032C77.3272 18.917 77.5192 19.355 77.8792 19.667C78.2392 19.979 78.7252 20.135 79.3372 20.135C80.1772 20.135 80.7172 19.865 80.9572 19.325H83.6572C83.5252 20.177 83.0572 20.873 82.2532 21.413C81.4612 21.941 80.4892 22.205 79.3372 22.205C77.8612 22.205 76.6972 21.797 75.8452 20.981C74.9932 20.165 74.5672 19.037 74.5672 17.597C74.5672 16.181 74.9932 15.065 75.8452 14.249C76.6972 13.421 77.8312 13.007 79.2472 13.007C80.5912 13.007 81.6832 13.391 82.5232 14.159C83.3632 14.927 83.7832 15.923 83.7832 17.147ZM77.3032 16.643H81.0652C81.0532 16.067 80.8912 15.623 80.5792 15.311C80.2672 14.999 79.8172 14.843 79.2292 14.843C78.6412 14.843 78.1732 15.011 77.8252 15.347C77.4892 15.671 77.3152 16.103 77.3032 16.643ZM88.8678 22.205C87.6198 22.205 86.6238 21.935 85.8798 21.395C85.1358 20.855 84.7638 20.165 84.7638 19.325H87.4998C87.4998 19.625 87.6318 19.871 87.8958 20.063C88.1598 20.255 88.5018 20.351 88.9218 20.351C89.2218 20.351 89.4618 20.279 89.6418 20.135C89.8338 19.991 89.9298 19.793 89.9298 19.541C89.9298 19.145 89.7198 18.899 89.2998 18.803L87.1758 18.263C86.4678 18.083 85.9278 17.777 85.5558 17.345C85.1838 16.913 84.9978 16.385 84.9978 15.761C84.9978 14.945 85.3338 14.285 86.0058 13.781C86.6778 13.265 87.5778 13.007 88.7058 13.007C89.9538 13.007 90.9078 13.247 91.5678 13.727C92.2398 14.207 92.5758 14.867 92.5758 15.707H89.8578C89.8578 15.407 89.7498 15.173 89.5338 15.005C89.3298 14.837 89.0418 14.753 88.6698 14.753C88.3698 14.753 88.1298 14.819 87.9498 14.951C87.7698 15.083 87.6798 15.257 87.6798 15.473C87.6798 15.857 87.9258 16.115 88.4178 16.247L90.4698 16.805C91.1538 16.985 91.6878 17.285 92.0718 17.705C92.4678 18.113 92.6658 18.617 92.6658 19.217C92.6658 20.117 92.3238 20.843 91.6398 21.395C90.9678 21.935 90.0438 22.205 88.8678 22.205ZM98.3889 22.205C96.9729 22.205 95.8449 21.785 95.0049 20.945C94.1649 20.093 93.7449 18.977 93.7449 17.597C93.7449 16.217 94.1649 15.107 95.0049 14.267C95.8449 13.427 96.9729 13.007 98.3889 13.007C99.6729 13.007 100.717 13.325 101.521 13.961C102.325 14.597 102.781 15.461 102.889 16.553H100.135C99.9309 15.737 99.3549 15.329 98.4069 15.329C97.8069 15.329 97.3389 15.527 97.0029 15.923C96.6669 16.319 96.4989 16.877 96.4989 17.597C96.4989 18.317 96.6669 18.875 97.0029 19.271C97.3389 19.667 97.8069 19.865 98.4069 19.865C99.3549 19.865 99.9309 19.481 100.135 18.713H102.889C102.781 19.781 102.325 20.633 101.521 21.269C100.717 21.893 99.6729 22.205 98.3889 22.205ZM104.466 21.935V13.259H107.22V15.077C107.364 14.453 107.658 13.973 108.102 13.637C108.558 13.289 109.062 13.115 109.614 13.115C109.902 13.115 110.142 13.139 110.334 13.187V15.743C110.01 15.707 109.734 15.689 109.506 15.689C107.982 15.689 107.22 16.655 107.22 18.587V21.935H104.466ZM114.424 11.999C114.1 12.323 113.692 12.485 113.2 12.485C112.708 12.485 112.3 12.323 111.976 11.999C111.664 11.675 111.508 11.279 111.508 10.811C111.508 10.331 111.664 9.92903 111.976 9.60503C112.3 9.28103 112.708 9.11903 113.2 9.11903C113.692 9.11903 114.1 9.28703 114.424 9.62303C114.748 9.94703 114.91 10.343 114.91 10.811C114.91 11.279 114.748 11.675 114.424 11.999ZM111.814 21.935V13.259H114.568V21.935H111.814ZM122.421 13.025C123.609 13.025 124.569 13.445 125.301 14.285C126.045 15.125 126.417 16.229 126.417 17.597C126.417 18.953 126.039 20.057 125.283 20.909C124.527 21.749 123.549 22.169 122.349 22.169C121.725 22.169 121.167 22.031 120.675 21.755C120.183 21.479 119.823 21.131 119.595 20.711V25.535H116.841V13.259H119.595V14.501C119.823 14.069 120.195 13.715 120.711 13.439C121.227 13.163 121.797 13.025 122.421 13.025ZM121.557 19.883C122.157 19.883 122.649 19.673 123.033 19.253C123.417 18.821 123.609 18.269 123.609 17.597C123.609 16.925 123.417 16.379 123.033 15.959C122.649 15.539 122.157 15.329 121.557 15.329C120.933 15.329 120.429 15.539 120.045 15.959C119.661 16.379 119.469 16.925 119.469 17.597C119.469 18.281 119.661 18.833 120.045 19.253C120.441 19.673 120.945 19.883 121.557 19.883ZM132.592 19.793C132.976 19.793 133.294 19.775 133.546 19.739V21.935C133.018 22.031 132.406 22.079 131.71 22.079C131.398 22.079 131.122 22.061 130.882 22.025C130.642 21.989 130.372 21.911 130.072 21.791C129.772 21.659 129.526 21.485 129.334 21.269C129.142 21.053 128.974 20.741 128.83 20.333C128.698 19.925 128.632 19.445 128.632 18.893V15.437H127.264V13.259H128.632V10.685H131.386V13.259H133.348V15.437H131.386V18.317C131.386 18.905 131.488 19.301 131.692 19.505C131.896 19.697 132.196 19.793 132.592 19.793ZM137.732 11.999C137.408 12.323 137 12.485 136.508 12.485C136.016 12.485 135.608 12.323 135.284 11.999C134.972 11.675 134.816 11.279 134.816 10.811C134.816 10.331 134.972 9.92903 135.284 9.60503C135.608 9.28103 136.016 9.11903 136.508 9.11903C137 9.11903 137.408 9.28703 137.732 9.62303C138.056 9.94703 138.218 10.343 138.218 10.811C138.218 11.279 138.056 11.675 137.732 11.999ZM135.122 21.935V13.259H137.876V21.935H135.122ZM147.782 20.909C146.918 21.773 145.754 22.205 144.29 22.205C142.826 22.205 141.656 21.773 140.78 20.909C139.904 20.045 139.466 18.941 139.466 17.597C139.466 16.253 139.904 15.155 140.78 14.303C141.656 13.439 142.826 13.007 144.29 13.007C145.754 13.007 146.918 13.439 147.782 14.303C148.658 15.155 149.096 16.253 149.096 17.597C149.096 18.941 148.658 20.045 147.782 20.909ZM144.29 19.865C144.926 19.865 145.43 19.655 145.802 19.235C146.174 18.815 146.36 18.269 146.36 17.597C146.36 16.925 146.174 16.379 145.802 15.959C145.43 15.539 144.926 15.329 144.29 15.329C143.642 15.329 143.132 15.539 142.76 15.959C142.4 16.379 142.22 16.925 142.22 17.597C142.22 18.269 142.4 18.815 142.76 19.235C143.132 19.655 143.642 19.865 144.29 19.865ZM150.679 21.935V13.259H153.433V14.519C153.949 13.523 154.885 13.025 156.241 13.025C158.353 13.025 159.409 14.207 159.409 16.571V21.935H156.637V17.471C156.637 16.727 156.517 16.187 156.277 15.851C156.049 15.515 155.659 15.347 155.107 15.347C153.991 15.347 153.433 16.031 153.433 17.399V21.935H150.679Z" fill="#1E293B"/>
</svg>
