<svg width="103" height="32" viewBox="0 0 103 32" fill="none" xmlns="http://www.w3.org/2000/svg">
<rect x="56.5" y="1.43503" width="44.7156" height="29" fill="#FFC351" stroke="#1E293B"/>
<path d="M58 0H55V3H58V0Z" fill="#1E293B"/>
<path d="M58 28.9569H55V31.9569H58V28.9569Z" fill="#1E293B"/>
<path d="M102.706 28.9569H99.7057V31.9569H102.706V28.9569Z" fill="#1E293B"/>
<path d="M102.706 0H99.7057V3H102.706V0Z" fill="#1E293B"/>
<path d="M14.706 15.311V17.507H13.518C13.194 19.031 12.48 20.213 11.376 21.053C10.284 21.881 8.874 22.295 7.146 22.295C5.154 22.295 3.54 21.677 2.304 20.441C1.08 19.193 0.474 17.609 0.486 15.689C0.486 13.781 1.092 12.185 2.304 10.901C3.528 9.61703 5.196 8.97503 7.308 8.97503C8.976 8.97503 10.356 9.37703 11.448 10.181C12.552 10.985 13.158 12.005 13.266 13.241H10.08C9.96 12.701 9.654 12.263 9.162 11.927C8.682 11.591 8.07 11.423 7.326 11.423C6.09 11.423 5.142 11.813 4.482 12.593C3.834 13.373 3.516 14.387 3.528 15.635C3.516 16.835 3.846 17.825 4.518 18.605C5.202 19.373 6.102 19.757 7.218 19.757C8.982 19.757 10.08 19.007 10.512 17.507H8.262V15.311H14.706ZM19.2246 22.169C18.1926 22.169 17.4006 21.863 16.8486 21.251C16.2966 20.627 16.0206 19.751 16.0206 18.623V13.259H18.8106V18.011C18.8106 19.235 19.2906 19.847 20.2506 19.847C21.3666 19.847 21.9246 19.205 21.9246 17.921V13.259H24.6606V21.935H21.9246V20.693C21.4086 21.677 20.5086 22.169 19.2246 22.169ZM35.4707 17.147C35.4707 17.507 35.4467 17.909 35.3987 18.353H28.9907C29.0147 18.917 29.2067 19.355 29.5667 19.667C29.9267 19.979 30.4127 20.135 31.0247 20.135C31.8647 20.135 32.4047 19.865 32.6447 19.325H35.3447C35.2127 20.177 34.7447 20.873 33.9407 21.413C33.1487 21.941 32.1767 22.205 31.0247 22.205C29.5487 22.205 28.3847 21.797 27.5327 20.981C26.6807 20.165 26.2547 19.037 26.2547 17.597C26.2547 16.181 26.6807 15.065 27.5327 14.249C28.3847 13.421 29.5187 13.007 30.9347 13.007C32.2787 13.007 33.3707 13.391 34.2107 14.159C35.0507 14.927 35.4707 15.923 35.4707 17.147ZM28.9907 16.643H32.7527C32.7407 16.067 32.5787 15.623 32.2667 15.311C31.9547 14.999 31.5047 14.843 30.9167 14.843C30.3287 14.843 29.8607 15.011 29.5127 15.347C29.1767 15.671 29.0027 16.103 28.9907 16.643ZM40.5553 22.205C39.3073 22.205 38.3113 21.935 37.5673 21.395C36.8233 20.855 36.4513 20.165 36.4513 19.325H39.1873C39.1873 19.625 39.3193 19.871 39.5833 20.063C39.8473 20.255 40.1893 20.351 40.6093 20.351C40.9093 20.351 41.1493 20.279 41.3293 20.135C41.5213 19.991 41.6173 19.793 41.6173 19.541C41.6173 19.145 41.4073 18.899 40.9873 18.803L38.8633 18.263C38.1553 18.083 37.6153 17.777 37.2433 17.345C36.8713 16.913 36.6853 16.385 36.6853 15.761C36.6853 14.945 37.0213 14.285 37.6933 13.781C38.3653 13.265 39.2653 13.007 40.3933 13.007C41.6413 13.007 42.5953 13.247 43.2553 13.727C43.9273 14.207 44.2633 14.867 44.2633 15.707H41.5453C41.5453 15.407 41.4373 15.173 41.2213 15.005C41.0173 14.837 40.7293 14.753 40.3573 14.753C40.0573 14.753 39.8173 14.819 39.6373 14.951C39.4573 15.083 39.3673 15.257 39.3673 15.473C39.3673 15.857 39.6133 16.115 40.1053 16.247L42.1573 16.805C42.8413 16.985 43.3753 17.285 43.7593 17.705C44.1553 18.113 44.3533 18.617 44.3533 19.217C44.3533 20.117 44.0113 20.843 43.3273 21.395C42.6553 21.935 41.7313 22.205 40.5553 22.205ZM50.4946 19.793C50.8786 19.793 51.1966 19.775 51.4486 19.739V21.935C50.9206 22.031 50.3086 22.079 49.6126 22.079C49.3006 22.079 49.0246 22.061 48.7846 22.025C48.5446 21.989 48.2746 21.911 47.9746 21.791C47.6746 21.659 47.4286 21.485 47.2366 21.269C47.0446 21.053 46.8766 20.741 46.7326 20.333C46.6006 19.925 46.5346 19.445 46.5346 18.893V15.437H45.1666V13.259H46.5346V10.685H49.2886V13.259H51.2506V15.437H49.2886V18.317C49.2886 18.905 49.3906 19.301 49.5946 19.505C49.7986 19.697 50.0986 19.793 50.4946 19.793ZM66.0085 22.295C64.4605 22.295 63.2485 21.905 62.3725 21.125C61.4965 20.333 61.0585 19.229 61.0585 17.813H63.9745C63.9745 18.497 64.1545 19.031 64.5145 19.415C64.8865 19.799 65.3905 19.991 66.0265 19.991C66.5665 19.991 66.9805 19.871 67.2685 19.631C67.5685 19.391 67.7185 19.049 67.7185 18.605C67.7185 18.221 67.6045 17.915 67.3765 17.687C67.1605 17.447 66.7645 17.213 66.1885 16.985L63.9205 16.103C62.2165 15.467 61.3645 14.321 61.3645 12.665C61.3645 11.549 61.7665 10.655 62.5705 9.98303C63.3865 9.31103 64.4785 8.97503 65.8465 8.97503C67.2385 8.97503 68.3545 9.34103 69.1945 10.073C70.0345 10.793 70.4545 11.759 70.4545 12.971H67.5385C67.5385 12.383 67.3885 11.933 67.0885 11.621C66.7885 11.309 66.3565 11.153 65.7925 11.153C65.3245 11.153 64.9525 11.267 64.6765 11.495C64.4125 11.711 64.2805 12.011 64.2805 12.395C64.2805 12.743 64.4125 13.043 64.6765 13.295C64.9405 13.535 65.3845 13.781 66.0085 14.033L68.0965 14.861C69.7885 15.521 70.6345 16.703 70.6345 18.407C70.6345 19.583 70.2085 20.525 69.3565 21.233C68.5165 21.941 67.4005 22.295 66.0085 22.295ZM76.7388 19.793C77.1228 19.793 77.4408 19.775 77.6928 19.739V21.935C77.1648 22.031 76.5528 22.079 75.8568 22.079C75.5448 22.079 75.2688 22.061 75.0288 22.025C74.7888 21.989 74.5188 21.911 74.2188 21.791C73.9188 21.659 73.6728 21.485 73.4808 21.269C73.2888 21.053 73.1208 20.741 72.9768 20.333C72.8448 19.925 72.7788 19.445 72.7788 18.893V15.437H71.4108V13.259H72.7788V10.685H75.5328V13.259H77.4948V15.437H75.5328V18.317C75.5328 18.905 75.6348 19.301 75.8388 19.505C76.0428 19.697 76.3428 19.793 76.7388 19.793ZM82.672 22.169C81.412 22.169 80.416 21.743 79.684 20.891C78.952 20.039 78.586 18.941 78.586 17.597C78.586 16.277 78.964 15.185 79.72 14.321C80.476 13.457 81.472 13.025 82.708 13.025C83.32 13.025 83.866 13.157 84.346 13.421C84.826 13.685 85.186 14.045 85.426 14.501V13.259H88.162V21.935H85.426V20.711C85.186 21.143 84.814 21.497 84.31 21.773C83.818 22.037 83.272 22.169 82.672 22.169ZM83.464 19.883C84.124 19.883 84.634 19.667 84.994 19.235C85.354 18.803 85.534 18.257 85.534 17.597C85.534 16.949 85.354 16.409 84.994 15.977C84.634 15.545 84.124 15.329 83.464 15.329C82.84 15.329 82.336 15.539 81.952 15.959C81.58 16.379 81.394 16.925 81.394 17.597C81.394 18.269 81.58 18.821 81.952 19.253C82.336 19.673 82.84 19.883 83.464 19.883ZM90.4485 21.935V13.259H93.2025V15.077C93.3465 14.453 93.6405 13.973 94.0845 13.637C94.5405 13.289 95.0445 13.115 95.5965 13.115C95.8845 13.115 96.1245 13.139 96.3165 13.187V15.743C95.9925 15.707 95.7165 15.689 95.4885 15.689C93.9645 15.689 93.2025 16.655 93.2025 18.587V21.935H90.4485Z" fill="#1E293B"/>
</svg>
