<svg width="101" height="32" viewBox="0 0 101 32" fill="none" xmlns="http://www.w3.org/2000/svg">
<rect x="1.15601" y="1.43503" width="64.7814" height="29" fill="#FFC351" stroke="#1E293B"/>
<path d="M3 0H0V3H3V0Z" fill="#1E293B"/>
<path d="M3 28.9569H0V31.9569H3V28.9569Z" fill="#1E293B"/>
<path d="M67.3771 28.9569H64.3771V31.9569H67.3771V28.9569Z" fill="#1E293B"/>
<path d="M67.3771 0H64.3771V3H67.3771V0Z" fill="#1E293B"/>
<path d="M16.754 9.33503L11.804 15.581L16.754 21.935H13.28L9.14 16.373V21.935H6.224V9.33503H9.14V14.933L13.298 9.33503H16.754ZM20.8048 22.169C19.5448 22.169 18.5488 21.743 17.8168 20.891C17.0848 20.039 16.7188 18.941 16.7188 17.597C16.7188 16.277 17.0968 15.185 17.8528 14.321C18.6088 13.457 19.6048 13.025 20.8408 13.025C21.4528 13.025 21.9988 13.157 22.4788 13.421C22.9588 13.685 23.3188 14.045 23.5588 14.501V13.259H26.2948V21.935H23.5588V20.711C23.3188 21.143 22.9468 21.497 22.4428 21.773C21.9508 22.037 21.4048 22.169 20.8048 22.169ZM21.5968 19.883C22.2568 19.883 22.7668 19.667 23.1268 19.235C23.4868 18.803 23.6668 18.257 23.6668 17.597C23.6668 16.949 23.4868 16.409 23.1268 15.977C22.7668 15.545 22.2568 15.329 21.5968 15.329C20.9728 15.329 20.4688 15.539 20.0848 15.959C19.7128 16.379 19.5268 16.925 19.5268 17.597C19.5268 18.269 19.7128 18.821 20.0848 19.253C20.4688 19.673 20.9728 19.883 21.5968 19.883ZM28.5813 21.935V13.259H31.3353V15.077C31.4793 14.453 31.7733 13.973 32.2173 13.637C32.6733 13.289 33.1773 13.115 33.7293 13.115C34.0173 13.115 34.2573 13.139 34.4493 13.187V15.743C34.1253 15.707 33.8493 15.689 33.6213 15.689C32.0973 15.689 31.3353 16.655 31.3353 18.587V21.935H28.5813ZM40.8345 19.793C41.2185 19.793 41.5365 19.775 41.7885 19.739V21.935C41.2605 22.031 40.6485 22.079 39.9525 22.079C39.6405 22.079 39.3645 22.061 39.1245 22.025C38.8845 21.989 38.6145 21.911 38.3145 21.791C38.0145 21.659 37.7685 21.485 37.5765 21.269C37.3845 21.053 37.2165 20.741 37.0725 20.333C36.9405 19.925 36.8745 19.445 36.8745 18.893V15.437H35.5065V13.259H36.8745V10.685H39.6285V13.259H41.5905V15.437H39.6285V18.317C39.6285 18.905 39.7305 19.301 39.9345 19.505C40.1385 19.697 40.4385 19.793 40.8345 19.793ZM46.0632 11.999C45.7392 12.323 45.3312 12.485 44.8392 12.485C44.3472 12.485 43.9392 12.323 43.6152 11.999C43.3032 11.675 43.1472 11.279 43.1472 10.811C43.1472 10.331 43.3032 9.92903 43.6152 9.60503C43.9392 9.28103 44.3472 9.11903 44.8392 9.11903C45.3312 9.11903 45.7392 9.28703 46.0632 9.62303C46.3872 9.94703 46.5492 10.343 46.5492 10.811C46.5492 11.279 46.3872 11.675 46.0632 11.999ZM43.3992 25.643C42.8832 25.643 42.4452 25.583 42.0852 25.463V23.339C42.2892 23.387 42.5112 23.411 42.7512 23.411C43.2192 23.411 43.4532 23.135 43.4532 22.583V13.259H46.2072V22.925C46.2072 23.825 45.9672 24.503 45.4872 24.959C45.0072 25.415 44.3112 25.643 43.3992 25.643ZM51.0897 11.999C50.7657 12.323 50.3577 12.485 49.8657 12.485C49.3737 12.485 48.9657 12.323 48.6417 11.999C48.3297 11.675 48.1737 11.279 48.1737 10.811C48.1737 10.331 48.3297 9.92903 48.6417 9.60503C48.9657 9.28103 49.3737 9.11903 49.8657 9.11903C50.3577 9.11903 50.7657 9.28703 51.0897 9.62303C51.4137 9.94703 51.5757 10.343 51.5757 10.811C51.5757 11.279 51.4137 11.675 51.0897 11.999ZM48.4797 21.935V13.259H51.2337V21.935H48.4797ZM56.981 22.205C55.733 22.205 54.737 21.935 53.993 21.395C53.249 20.855 52.877 20.165 52.877 19.325H55.613C55.613 19.625 55.745 19.871 56.009 20.063C56.273 20.255 56.615 20.351 57.035 20.351C57.335 20.351 57.575 20.279 57.755 20.135C57.947 19.991 58.043 19.793 58.043 19.541C58.043 19.145 57.833 18.899 57.413 18.803L55.289 18.263C54.581 18.083 54.041 17.777 53.669 17.345C53.297 16.913 53.111 16.385 53.111 15.761C53.111 14.945 53.447 14.285 54.119 13.781C54.791 13.265 55.691 13.007 56.819 13.007C58.067 13.007 59.021 13.247 59.681 13.727C60.353 14.207 60.689 14.867 60.689 15.707H57.971C57.971 15.407 57.863 15.173 57.647 15.005C57.443 14.837 57.155 14.753 56.783 14.753C56.483 14.753 56.243 14.819 56.063 14.951C55.883 15.083 55.793 15.257 55.793 15.473C55.793 15.857 56.039 16.115 56.531 16.247L58.583 16.805C59.267 16.985 59.801 17.285 60.185 17.705C60.581 18.113 60.779 18.617 60.779 19.217C60.779 20.117 60.437 20.843 59.753 21.395C59.081 21.935 58.157 22.205 56.981 22.205ZM71.3334 21.935V9.33503H74.2494V19.343H78.9294V21.935H71.3334ZM83.3631 11.999C83.0391 12.323 82.6311 12.485 82.1391 12.485C81.6471 12.485 81.2391 12.323 80.9151 11.999C80.6031 11.675 80.4471 11.279 80.4471 10.811C80.4471 10.331 80.6031 9.92903 80.9151 9.60503C81.2391 9.28103 81.6471 9.11903 82.1391 9.11903C82.6311 9.11903 83.0391 9.28703 83.3631 9.62303C83.6871 9.94703 83.8491 10.343 83.8491 10.811C83.8491 11.279 83.6871 11.675 83.3631 11.999ZM80.7531 21.935V13.259H83.5071V21.935H80.7531ZM89.2545 22.205C88.0065 22.205 87.0105 21.935 86.2665 21.395C85.5225 20.855 85.1505 20.165 85.1505 19.325H87.8865C87.8865 19.625 88.0185 19.871 88.2825 20.063C88.5465 20.255 88.8885 20.351 89.3085 20.351C89.6085 20.351 89.8485 20.279 90.0285 20.135C90.2205 19.991 90.3165 19.793 90.3165 19.541C90.3165 19.145 90.1065 18.899 89.6865 18.803L87.5625 18.263C86.8545 18.083 86.3145 17.777 85.9425 17.345C85.5705 16.913 85.3845 16.385 85.3845 15.761C85.3845 14.945 85.7205 14.285 86.3925 13.781C87.0645 13.265 87.9645 13.007 89.0925 13.007C90.3405 13.007 91.2945 13.247 91.9545 13.727C92.6265 14.207 92.9625 14.867 92.9625 15.707H90.2445C90.2445 15.407 90.1365 15.173 89.9205 15.005C89.7165 14.837 89.4285 14.753 89.0565 14.753C88.7565 14.753 88.5165 14.819 88.3365 14.951C88.1565 15.083 88.0665 15.257 88.0665 15.473C88.0665 15.857 88.3125 16.115 88.8045 16.247L90.8565 16.805C91.5405 16.985 92.0745 17.285 92.4585 17.705C92.8545 18.113 93.0525 18.617 93.0525 19.217C93.0525 20.117 92.7105 20.843 92.0265 21.395C91.3545 21.935 90.4305 22.205 89.2545 22.205ZM99.1939 19.793C99.5779 19.793 99.8959 19.775 100.148 19.739V21.935C99.6199 22.031 99.0079 22.079 98.3119 22.079C97.9999 22.079 97.7239 22.061 97.4839 22.025C97.2439 21.989 96.9739 21.911 96.6739 21.791C96.3739 21.659 96.1279 21.485 95.9359 21.269C95.7439 21.053 95.5759 20.741 95.4319 20.333C95.2999 19.925 95.2339 19.445 95.2339 18.893V15.437H93.8659V13.259H95.2339V10.685H97.9879V13.259H99.9499V15.437H97.9879V18.317C97.9879 18.905 98.0899 19.301 98.2939 19.505C98.4979 19.697 98.7979 19.793 99.1939 19.793Z" fill="#1E293B"/>
</svg>
