<svg width="157" height="32" viewBox="0 0 157 32" fill="none" xmlns="http://www.w3.org/2000/svg">
<rect x="1.5" y="1.43503" width="56.0974" height="29" fill="#DF135C" stroke="#1E293B"/>
<path d="M3 0.0431442H0V3.04314H3V0.0431442Z" fill="#1E293B"/>
<path d="M3 29H0V32H3V29Z" fill="#1E293B"/>
<path d="M59 29H56V32H59V29Z" fill="#1E293B"/>
<path d="M59 0.0431442H56V3.04314H59V0.0431442Z" fill="#1E293B"/>
<path d="M7.224 21.935V9.33503H10.14V19.343H14.82V21.935H7.224ZM25 17.147C25 17.507 24.976 17.909 24.928 18.353H18.52C18.544 18.917 18.736 19.355 19.096 19.667C19.456 19.979 19.942 20.135 20.554 20.135C21.394 20.135 21.934 19.865 22.174 19.325H24.874C24.742 20.177 24.274 20.873 23.47 21.413C22.678 21.941 21.706 22.205 20.554 22.205C19.078 22.205 17.914 21.797 17.062 20.981C16.21 20.165 15.784 19.037 15.784 17.597C15.784 16.181 16.21 15.065 17.062 14.249C17.914 13.421 19.048 13.007 20.464 13.007C21.808 13.007 22.9 13.391 23.74 14.159C24.58 14.927 25 15.923 25 17.147ZM18.52 16.643H22.282C22.27 16.067 22.108 15.623 21.796 15.311C21.484 14.999 21.034 14.843 20.446 14.843C19.858 14.843 19.39 15.011 19.042 15.347C18.706 15.671 18.532 16.103 18.52 16.643ZM32.9963 13.259H35.7503V21.341C35.7503 23.021 35.1923 24.251 34.0763 25.031C33.3443 25.547 32.3123 25.805 30.9803 25.805C29.6723 25.805 28.6283 25.571 27.8483 25.103C27.4043 24.827 27.0383 24.473 26.7503 24.041C26.4623 23.609 26.3123 23.159 26.3003 22.691H29.1083C29.2403 23.423 29.8523 23.789 30.9443 23.789C32.3123 23.789 32.9963 23.087 32.9963 21.683V20.531C32.7803 20.951 32.4143 21.293 31.8983 21.557C31.3943 21.809 30.8543 21.935 30.2783 21.935C29.0183 21.935 28.0163 21.527 27.2723 20.711C26.5283 19.883 26.1563 18.815 26.1563 17.507C26.1563 16.211 26.5403 15.143 27.3083 14.303C28.0763 13.451 29.0783 13.025 30.3143 13.025C30.9143 13.025 31.4543 13.163 31.9343 13.439C32.4263 13.703 32.7803 14.057 32.9963 14.501V13.259ZM31.0343 19.811C31.6703 19.811 32.1743 19.595 32.5463 19.163C32.9303 18.731 33.1223 18.191 33.1223 17.543C33.1223 16.895 32.9303 16.355 32.5463 15.923C32.1743 15.491 31.6703 15.275 31.0343 15.275C30.4223 15.275 29.9243 15.491 29.5403 15.923C29.1683 16.343 28.9823 16.883 28.9823 17.543C28.9823 18.203 29.1683 18.749 29.5403 19.181C29.9243 19.601 30.4223 19.811 31.0343 19.811ZM41.4748 22.169C40.2148 22.169 39.2188 21.743 38.4868 20.891C37.7548 20.039 37.3888 18.941 37.3888 17.597C37.3888 16.277 37.7668 15.185 38.5228 14.321C39.2788 13.457 40.2748 13.025 41.5108 13.025C42.1228 13.025 42.6688 13.157 43.1488 13.421C43.6288 13.685 43.9888 14.045 44.2288 14.501V13.259H46.9648V21.935H44.2288V20.711C43.9888 21.143 43.6168 21.497 43.1128 21.773C42.6208 22.037 42.0748 22.169 41.4748 22.169ZM42.2668 19.883C42.9268 19.883 43.4368 19.667 43.7968 19.235C44.1568 18.803 44.3368 18.257 44.3368 17.597C44.3368 16.949 44.1568 16.409 43.7968 15.977C43.4368 15.545 42.9268 15.329 42.2668 15.329C41.6428 15.329 41.1388 15.539 40.7548 15.959C40.3828 16.379 40.1968 16.925 40.1968 17.597C40.1968 18.269 40.3828 18.821 40.7548 19.253C41.1388 19.673 41.6428 19.883 42.2668 19.883ZM49.2512 21.935V9.33503H52.0052V21.935H49.2512ZM70.4844 21.935L70.0524 20.405H65.5884L65.1564 21.935H62.0784L66.3444 9.33503H69.2784L73.5624 21.935H70.4844ZM66.2364 18.119H69.4044L67.8204 12.521L66.2364 18.119ZM80.9143 13.259H83.6683V21.341C83.6683 23.021 83.1103 24.251 81.9943 25.031C81.2623 25.547 80.2303 25.805 78.8983 25.805C77.5903 25.805 76.5463 25.571 75.7663 25.103C75.3223 24.827 74.9563 24.473 74.6683 24.041C74.3803 23.609 74.2303 23.159 74.2183 22.691H77.0263C77.1583 23.423 77.7703 23.789 78.8623 23.789C80.2303 23.789 80.9143 23.087 80.9143 21.683V20.531C80.6983 20.951 80.3323 21.293 79.8163 21.557C79.3123 21.809 78.7723 21.935 78.1963 21.935C76.9363 21.935 75.9343 21.527 75.1903 20.711C74.4463 19.883 74.0743 18.815 74.0743 17.507C74.0743 16.211 74.4583 15.143 75.2263 14.303C75.9943 13.451 76.9963 13.025 78.2323 13.025C78.8323 13.025 79.3723 13.163 79.8523 13.439C80.3443 13.703 80.6983 14.057 80.9143 14.501V13.259ZM78.9523 19.811C79.5883 19.811 80.0923 19.595 80.4643 19.163C80.8483 18.731 81.0403 18.191 81.0403 17.543C81.0403 16.895 80.8483 16.355 80.4643 15.923C80.0923 15.491 79.5883 15.275 78.9523 15.275C78.3403 15.275 77.8423 15.491 77.4583 15.923C77.0863 16.343 76.9003 16.883 76.9003 17.543C76.9003 18.203 77.0863 18.749 77.4583 19.181C77.8423 19.601 78.3403 19.811 78.9523 19.811ZM85.9367 21.935V13.259H88.6907V15.077C88.8347 14.453 89.1287 13.973 89.5727 13.637C90.0287 13.289 90.5327 13.115 91.0847 13.115C91.3727 13.115 91.6127 13.139 91.8047 13.187V15.743C91.4807 15.707 91.2047 15.689 90.9767 15.689C89.4527 15.689 88.6907 16.655 88.6907 18.587V21.935H85.9367ZM101.764 17.147C101.764 17.507 101.74 17.909 101.692 18.353H95.2837C95.3077 18.917 95.4997 19.355 95.8597 19.667C96.2197 19.979 96.7057 20.135 97.3177 20.135C98.1577 20.135 98.6977 19.865 98.9377 19.325H101.638C101.506 20.177 101.038 20.873 100.234 21.413C99.4417 21.941 98.4697 22.205 97.3177 22.205C95.8417 22.205 94.6777 21.797 93.8257 20.981C92.9737 20.165 92.5477 19.037 92.5477 17.597C92.5477 16.181 92.9737 15.065 93.8257 14.249C94.6777 13.421 95.8117 13.007 97.2277 13.007C98.5717 13.007 99.6637 13.391 100.504 14.159C101.344 14.927 101.764 15.923 101.764 17.147ZM95.2837 16.643H99.0457C99.0337 16.067 98.8717 15.623 98.5597 15.311C98.2477 14.999 97.7977 14.843 97.2097 14.843C96.6217 14.843 96.1537 15.011 95.8057 15.347C95.4697 15.671 95.2957 16.103 95.2837 16.643ZM112.17 17.147C112.17 17.507 112.146 17.909 112.098 18.353H105.69C105.714 18.917 105.906 19.355 106.266 19.667C106.626 19.979 107.112 20.135 107.724 20.135C108.564 20.135 109.104 19.865 109.344 19.325H112.044C111.912 20.177 111.444 20.873 110.64 21.413C109.848 21.941 108.876 22.205 107.724 22.205C106.248 22.205 105.084 21.797 104.232 20.981C103.38 20.165 102.954 19.037 102.954 17.597C102.954 16.181 103.38 15.065 104.232 14.249C105.084 13.421 106.218 13.007 107.634 13.007C108.978 13.007 110.07 13.391 110.91 14.159C111.75 14.927 112.17 15.923 112.17 17.147ZM105.69 16.643H109.452C109.44 16.067 109.278 15.623 108.966 15.311C108.654 14.999 108.204 14.843 107.616 14.843C107.028 14.843 106.56 15.011 106.212 15.347C105.876 15.671 105.702 16.103 105.69 16.643ZM113.745 21.935V13.259H116.499V14.519C116.691 14.075 117.003 13.715 117.435 13.439C117.879 13.163 118.395 13.025 118.983 13.025C120.351 13.025 121.257 13.559 121.701 14.627C121.941 14.147 122.307 13.763 122.799 13.475C123.291 13.175 123.849 13.025 124.473 13.025C126.525 13.025 127.551 14.201 127.551 16.553V21.935H124.779V17.057C124.779 15.917 124.347 15.347 123.483 15.347C122.511 15.347 122.025 16.055 122.025 17.471V21.935H119.253V17.039C119.253 15.911 118.827 15.347 117.975 15.347C117.495 15.347 117.129 15.509 116.877 15.833C116.625 16.145 116.499 16.691 116.499 17.471V21.935H113.745ZM138.256 17.147C138.256 17.507 138.232 17.909 138.184 18.353H131.776C131.8 18.917 131.992 19.355 132.352 19.667C132.712 19.979 133.198 20.135 133.81 20.135C134.65 20.135 135.19 19.865 135.43 19.325H138.13C137.998 20.177 137.53 20.873 136.726 21.413C135.934 21.941 134.962 22.205 133.81 22.205C132.334 22.205 131.17 21.797 130.318 20.981C129.466 20.165 129.04 19.037 129.04 17.597C129.04 16.181 129.466 15.065 130.318 14.249C131.17 13.421 132.304 13.007 133.72 13.007C135.064 13.007 136.156 13.391 136.996 14.159C137.836 14.927 138.256 15.923 138.256 17.147ZM131.776 16.643H135.538C135.526 16.067 135.364 15.623 135.052 15.311C134.74 14.999 134.29 14.843 133.702 14.843C133.114 14.843 132.646 15.011 132.298 15.347C131.962 15.671 131.788 16.103 131.776 16.643ZM139.831 21.935V13.259H142.585V14.519C143.101 13.523 144.037 13.025 145.393 13.025C147.505 13.025 148.561 14.207 148.561 16.571V21.935H145.789V17.471C145.789 16.727 145.669 16.187 145.429 15.851C145.201 15.515 144.811 15.347 144.259 15.347C143.143 15.347 142.585 16.031 142.585 17.399V21.935H139.831ZM155.161 19.793C155.545 19.793 155.863 19.775 156.115 19.739V21.935C155.587 22.031 154.975 22.079 154.279 22.079C153.967 22.079 153.691 22.061 153.451 22.025C153.211 21.989 152.941 21.911 152.641 21.791C152.341 21.659 152.095 21.485 151.903 21.269C151.711 21.053 151.543 20.741 151.399 20.333C151.267 19.925 151.201 19.445 151.201 18.893V15.437H149.833V13.259H151.201V10.685H153.955V13.259H155.917V15.437H153.955V18.317C153.955 18.905 154.057 19.301 154.261 19.505C154.465 19.697 154.765 19.793 155.161 19.793Z" fill="#1E293B"/>
</svg>
