<svg width="132" height="35" viewBox="0 0 132 35" fill="none" xmlns="http://www.w3.org/2000/svg">
<rect x="48.6489" y="2.20157" width="81.685" height="30" fill="#9F77E2" stroke="#1E293B"/>
<path d="M2.2525 23.7016V8.30157H5.8165V20.5336H11.5365V23.7016H2.2525ZM16.9555 11.5576C16.5595 11.9536 16.0609 12.1516 15.4595 12.1516C14.8582 12.1516 14.3595 11.9536 13.9635 11.5576C13.5822 11.1616 13.3915 10.6776 13.3915 10.1056C13.3915 9.5189 13.5822 9.02757 13.9635 8.63157C14.3595 8.23557 14.8582 8.03757 15.4595 8.03757C16.0609 8.03757 16.5595 8.2429 16.9555 8.65357C17.3515 9.04957 17.5495 9.53357 17.5495 10.1056C17.5495 10.6776 17.3515 11.1616 16.9555 11.5576ZM13.7655 23.7016V13.0976H17.1315V23.7016H13.7655ZM23.0341 23.7016L18.4581 13.0976H22.1761L24.5521 19.7636L26.9281 13.0976H30.6681L26.0701 23.7016H23.0341ZM41.9182 17.8496C41.9182 18.2896 41.8888 18.7809 41.8302 19.3236H33.9982C34.0275 20.0129 34.2622 20.5482 34.7022 20.9296C35.1422 21.3109 35.7362 21.5016 36.4842 21.5016C37.5108 21.5016 38.1708 21.1716 38.4642 20.5116H41.7642C41.6028 21.5529 41.0308 22.4036 40.0482 23.0636C39.0802 23.7089 37.8922 24.0316 36.4842 24.0316C34.6802 24.0316 33.2575 23.5329 32.2162 22.5356C31.1748 21.5382 30.6542 20.1596 30.6542 18.3996C30.6542 16.6689 31.1748 15.3049 32.2162 14.3076C33.2575 13.2956 34.6435 12.7896 36.3742 12.7896C38.0168 12.7896 39.3515 13.2589 40.3782 14.1976C41.4048 15.1362 41.9182 16.3536 41.9182 17.8496ZM33.9982 17.2336H38.5962C38.5815 16.5296 38.3835 15.9869 38.0022 15.6056C37.6208 15.2242 37.0708 15.0336 36.3522 15.0336C35.6335 15.0336 35.0615 15.2389 34.6362 15.6496C34.2255 16.0456 34.0128 16.5736 33.9982 17.2336ZM66.7309 13.8676C66.7309 14.9822 66.4742 15.9796 65.9609 16.8596C65.4476 17.7249 64.7436 18.3776 63.8489 18.8176L66.5549 23.7016H62.5069L60.0869 19.4336H58.2169V23.7016H54.6529V8.30157H61.2089C62.8076 8.30157 64.1276 8.82957 65.1689 9.88557C66.2102 10.9269 66.7309 12.2542 66.7309 13.8676ZM58.2169 11.2056V16.5296H60.6589C61.3776 16.5296 61.9642 16.2802 62.4189 15.7816C62.8882 15.2829 63.1229 14.6449 63.1229 13.8676C63.1229 13.0902 62.8882 12.4522 62.4189 11.9536C61.9642 11.4549 61.3776 11.2056 60.6589 11.2056H58.2169ZM79.0646 17.8496C79.0646 18.2896 79.0353 18.7809 78.9766 19.3236H71.1446C71.174 20.0129 71.4086 20.5482 71.8486 20.9296C72.2886 21.3109 72.8826 21.5016 73.6306 21.5016C74.6573 21.5016 75.3173 21.1716 75.6106 20.5116H78.9106C78.7493 21.5529 78.1773 22.4036 77.1946 23.0636C76.2266 23.7089 75.0386 24.0316 73.6306 24.0316C71.8266 24.0316 70.404 23.5329 69.3626 22.5356C68.3213 21.5382 67.8006 20.1596 67.8006 18.3996C67.8006 16.6689 68.3213 15.3049 69.3626 14.3076C70.404 13.2956 71.79 12.7896 73.5206 12.7896C75.1633 12.7896 76.498 13.2589 77.5246 14.1976C78.5513 15.1362 79.0646 16.3536 79.0646 17.8496ZM71.1446 17.2336H75.7426C75.728 16.5296 75.53 15.9869 75.1486 15.6056C74.7673 15.2242 74.2173 15.0336 73.4986 15.0336C72.78 15.0336 72.208 15.2389 71.7826 15.6496C71.372 16.0456 71.1593 16.5736 71.1446 17.2336ZM87.8102 12.8116C89.2622 12.8116 90.4355 13.3249 91.3302 14.3516C92.2395 15.3782 92.6942 16.7276 92.6942 18.3996C92.6942 20.0569 92.2322 21.4062 91.3082 22.4476C90.3842 23.4742 89.1888 23.9876 87.7222 23.9876C86.9595 23.9876 86.2775 23.8189 85.6762 23.4816C85.0748 23.1442 84.6348 22.7189 84.3562 22.2056V28.1016H80.9902V13.0976H84.3562V14.6156C84.6348 14.0876 85.0895 13.6549 85.7202 13.3176C86.3508 12.9802 87.0475 12.8116 87.8102 12.8116ZM86.7542 21.1936C87.4875 21.1936 88.0888 20.9369 88.5582 20.4236C89.0275 19.8956 89.2622 19.2209 89.2622 18.3996C89.2622 17.5782 89.0275 16.9109 88.5582 16.3976C88.0888 15.8842 87.4875 15.6276 86.7542 15.6276C85.9915 15.6276 85.3755 15.8842 84.9062 16.3976C84.4368 16.9109 84.2022 17.5782 84.2022 18.3996C84.2022 19.2356 84.4368 19.9102 84.9062 20.4236C85.3902 20.9369 86.0062 21.1936 86.7542 21.1936ZM104.111 22.4476C103.055 23.5036 101.632 24.0316 99.8431 24.0316C98.0538 24.0316 96.6238 23.5036 95.5531 22.4476C94.4825 21.3916 93.9471 20.0422 93.9471 18.3996C93.9471 16.7569 94.4825 15.4149 95.5531 14.3736C96.6238 13.3176 98.0538 12.7896 99.8431 12.7896C101.632 12.7896 103.055 13.3176 104.111 14.3736C105.182 15.4149 105.717 16.7569 105.717 18.3996C105.717 20.0422 105.182 21.3916 104.111 22.4476ZM99.8431 21.1716C100.62 21.1716 101.236 20.9149 101.691 20.4016C102.146 19.8882 102.373 19.2209 102.373 18.3996C102.373 17.5782 102.146 16.9109 101.691 16.3976C101.236 15.8842 100.62 15.6276 99.8431 15.6276C99.0511 15.6276 98.4278 15.8842 97.9731 16.3976C97.5331 16.9109 97.3131 17.5782 97.3131 18.3996C97.3131 19.2209 97.5331 19.8882 97.9731 20.4016C98.4278 20.9149 99.0511 21.1716 99.8431 21.1716ZM107.652 23.7016V13.0976H111.018V15.3196C111.194 14.5569 111.554 13.9702 112.096 13.5596C112.654 13.1342 113.27 12.9216 113.944 12.9216C114.296 12.9216 114.59 12.9509 114.824 13.0096V16.1336C114.428 16.0896 114.091 16.0676 113.812 16.0676C111.95 16.0676 111.018 17.2482 111.018 19.6096V23.7016H107.652ZM122.628 21.0836C123.098 21.0836 123.486 21.0616 123.794 21.0176V23.7016C123.149 23.8189 122.401 23.8776 121.55 23.8776C121.169 23.8776 120.832 23.8556 120.538 23.8116C120.245 23.7676 119.915 23.6722 119.548 23.5256C119.182 23.3642 118.881 23.1516 118.646 22.8876C118.412 22.6236 118.206 22.2422 118.03 21.7436C117.869 21.2449 117.788 20.6582 117.788 19.9836V15.7596H116.116V13.0976H117.788V9.95157H121.154V13.0976H123.552V15.7596H121.154V19.2796C121.154 19.9982 121.279 20.4822 121.528 20.7316C121.778 20.9662 122.144 21.0836 122.628 21.0836Z" fill="#1E293B"/>
<rect x="46.9781" y="0.701569" width="3" height="3" fill="#1E293B"/>
<rect x="128.763" y="0.701569" width="3" height="3" fill="#1E293B"/>
<rect x="46.9781" y="30.6465" width="3" height="3" fill="#1E293B"/>
<rect x="128.763" y="30.6465" width="3" height="3" fill="#1E293B"/>
</svg>
