<svg width="108" height="32" viewBox="0 0 108 32" fill="none" xmlns="http://www.w3.org/2000/svg">
<rect x="39" y="1.43503" width="67.0104" height="29" fill="#9F77E2" stroke="#1E293B"/>
<path d="M1.224 21.935V9.33503H4.14V19.343H8.82V21.935H1.224ZM13.2538 11.999C12.9298 12.323 12.5218 12.485 12.0298 12.485C11.5378 12.485 11.1298 12.323 10.8058 11.999C10.4938 11.675 10.3378 11.279 10.3378 10.811C10.3378 10.331 10.4938 9.92903 10.8058 9.60503C11.1298 9.28103 11.5378 9.11903 12.0298 9.11903C12.5218 9.11903 12.9298 9.28703 13.2538 9.62303C13.5778 9.94703 13.7398 10.343 13.7398 10.811C13.7398 11.279 13.5778 11.675 13.2538 11.999ZM10.6438 21.935V13.259H13.3978V21.935H10.6438ZM18.2271 21.935L14.4831 13.259H17.5251L19.4691 18.713L21.4131 13.259H24.4731L20.7111 21.935H18.2271ZM33.6777 17.147C33.6777 17.507 33.6537 17.909 33.6057 18.353H27.1977C27.2217 18.917 27.4137 19.355 27.7737 19.667C28.1337 19.979 28.6197 20.135 29.2317 20.135C30.0717 20.135 30.6117 19.865 30.8517 19.325H33.5517C33.4197 20.177 32.9517 20.873 32.1477 21.413C31.3557 21.941 30.3837 22.205 29.2317 22.205C27.7557 22.205 26.5917 21.797 25.7397 20.981C24.8877 20.165 24.4617 19.037 24.4617 17.597C24.4617 16.181 24.8877 15.065 25.7397 14.249C26.5917 13.421 27.7257 13.007 29.1417 13.007C30.4857 13.007 31.5777 13.391 32.4177 14.159C33.2577 14.927 33.6777 15.923 33.6777 17.147ZM27.1977 16.643H30.9597C30.9477 16.067 30.7857 15.623 30.4737 15.311C30.1617 14.999 29.7117 14.843 29.1237 14.843C28.5357 14.843 28.0677 15.011 27.7197 15.347C27.3837 15.671 27.2097 16.103 27.1977 16.643ZM53.979 13.889C53.979 14.801 53.769 15.617 53.349 16.337C52.929 17.045 52.353 17.579 51.621 17.939L53.835 21.935H50.523L48.543 18.443H47.013V21.935H44.097V9.33503H49.461C50.769 9.33503 51.849 9.76703 52.701 10.631C53.553 11.483 53.979 12.569 53.979 13.889ZM47.013 11.711V16.067H49.011C49.599 16.067 50.079 15.863 50.451 15.455C50.835 15.047 51.027 14.525 51.027 13.889C51.027 13.253 50.835 12.731 50.451 12.323C50.079 11.915 49.599 11.711 49.011 11.711H47.013ZM64.0703 17.147C64.0703 17.507 64.0463 17.909 63.9983 18.353H57.5903C57.6143 18.917 57.8063 19.355 58.1663 19.667C58.5263 19.979 59.0123 20.135 59.6243 20.135C60.4643 20.135 61.0043 19.865 61.2443 19.325H63.9443C63.8123 20.177 63.3443 20.873 62.5403 21.413C61.7483 21.941 60.7763 22.205 59.6243 22.205C58.1483 22.205 56.9843 21.797 56.1323 20.981C55.2803 20.165 54.8543 19.037 54.8543 17.597C54.8543 16.181 55.2803 15.065 56.1323 14.249C56.9843 13.421 58.1183 13.007 59.5343 13.007C60.8783 13.007 61.9703 13.391 62.8103 14.159C63.6503 14.927 64.0703 15.923 64.0703 17.147ZM57.5903 16.643H61.3523C61.3403 16.067 61.1783 15.623 60.8663 15.311C60.5543 14.999 60.1043 14.843 59.5163 14.843C58.9283 14.843 58.4603 15.011 58.1123 15.347C57.7763 15.671 57.6023 16.103 57.5903 16.643ZM71.2257 13.025C72.4137 13.025 73.3737 13.445 74.1057 14.285C74.8497 15.125 75.2217 16.229 75.2217 17.597C75.2217 18.953 74.8437 20.057 74.0877 20.909C73.3317 21.749 72.3537 22.169 71.1537 22.169C70.5297 22.169 69.9717 22.031 69.4797 21.755C68.9877 21.479 68.6277 21.131 68.3997 20.711V25.535H65.6457V13.259H68.3997V14.501C68.6277 14.069 68.9997 13.715 69.5157 13.439C70.0317 13.163 70.6017 13.025 71.2257 13.025ZM70.3617 19.883C70.9617 19.883 71.4537 19.673 71.8377 19.253C72.2217 18.821 72.4137 18.269 72.4137 17.597C72.4137 16.925 72.2217 16.379 71.8377 15.959C71.4537 15.539 70.9617 15.329 70.3617 15.329C69.7377 15.329 69.2337 15.539 68.8497 15.959C68.4657 16.379 68.2737 16.925 68.2737 17.597C68.2737 18.281 68.4657 18.833 68.8497 19.253C69.2457 19.673 69.7497 19.883 70.3617 19.883ZM84.5629 20.909C83.6989 21.773 82.5349 22.205 81.0709 22.205C79.6069 22.205 78.4369 21.773 77.5609 20.909C76.6849 20.045 76.2469 18.941 76.2469 17.597C76.2469 16.253 76.6849 15.155 77.5609 14.303C78.4369 13.439 79.6069 13.007 81.0709 13.007C82.5349 13.007 83.6989 13.439 84.5629 14.303C85.4389 15.155 85.8769 16.253 85.8769 17.597C85.8769 18.941 85.4389 20.045 84.5629 20.909ZM81.0709 19.865C81.7069 19.865 82.2109 19.655 82.5829 19.235C82.9549 18.815 83.1409 18.269 83.1409 17.597C83.1409 16.925 82.9549 16.379 82.5829 15.959C82.2109 15.539 81.7069 15.329 81.0709 15.329C80.4229 15.329 79.9129 15.539 79.5409 15.959C79.1809 16.379 79.0009 16.925 79.0009 17.597C79.0009 18.269 79.1809 18.815 79.5409 19.235C79.9129 19.655 80.4229 19.865 81.0709 19.865ZM87.4602 21.935V13.259H90.2142V15.077C90.3582 14.453 90.6522 13.973 91.0962 13.637C91.5522 13.289 92.0562 13.115 92.6082 13.115C92.8962 13.115 93.1362 13.139 93.3282 13.187V15.743C93.0042 15.707 92.7282 15.689 92.5002 15.689C90.9762 15.689 90.2142 16.655 90.2142 18.587V21.935H87.4602ZM99.7134 19.793C100.097 19.793 100.415 19.775 100.667 19.739V21.935C100.139 22.031 99.5274 22.079 98.8314 22.079C98.5194 22.079 98.2434 22.061 98.0034 22.025C97.7634 21.989 97.4934 21.911 97.1934 21.791C96.8934 21.659 96.6474 21.485 96.4554 21.269C96.2634 21.053 96.0954 20.741 95.9514 20.333C95.8194 19.925 95.7534 19.445 95.7534 18.893V15.437H94.3854V13.259H95.7534V10.685H98.5074V13.259H100.469V15.437H98.5074V18.317C98.5074 18.905 98.6094 19.301 98.8134 19.505C99.0174 19.697 99.3174 19.793 99.7134 19.793Z" fill="#1E293B"/>
<path d="M40.5 0H37.5V3H40.5V0Z" fill="#1E293B"/>
<path d="M40.5 28.9569H37.5V31.9569H40.5V28.9569Z" fill="#1E293B"/>
<path d="M107.5 28.9569H104.5V31.9569H107.5V28.9569Z" fill="#1E293B"/>
<path d="M107.5 0H104.5V3H107.5V0Z" fill="#1E293B"/>
</svg>
