<svg width="87" height="32" viewBox="0 0 87 32" fill="none" xmlns="http://www.w3.org/2000/svg">
<rect x="1.5" y="1.43503" width="19.5084" height="29" fill="#9F77E2" stroke="#1E293B"/>
<path d="M3 0.0431442H0V3.04314H3V0.0431442Z" fill="#1E293B"/>
<path d="M3 29H0V32H3V29Z" fill="#1E293B"/>
<path d="M22.3949 29H19.3949V32H22.3949V29Z" fill="#1E293B"/>
<path d="M22.3949 0.0431442H19.3949V3.04314H22.3949V0.0431442Z" fill="#1E293B"/>
<path d="M16.114 20.369C14.89 21.653 13.258 22.295 11.218 22.295C9.178 22.295 7.546 21.653 6.322 20.369C5.098 19.073 4.486 17.495 4.486 15.635C4.486 13.775 5.098 12.203 6.322 10.919C7.546 9.62303 9.178 8.97503 11.218 8.97503C13.258 8.97503 14.89 9.62303 16.114 10.919C17.338 12.203 17.95 13.775 17.95 15.635C17.95 17.495 17.338 19.073 16.114 20.369ZM11.218 19.685C12.37 19.685 13.27 19.301 13.918 18.533C14.578 17.753 14.908 16.787 14.908 15.635C14.908 14.483 14.578 13.523 13.918 12.755C13.27 11.975 12.37 11.585 11.218 11.585C10.054 11.585 9.142 11.975 8.482 12.755C7.834 13.523 7.516 14.483 7.528 15.635C7.516 16.787 7.834 17.753 8.482 18.533C9.142 19.301 10.054 19.685 11.218 19.685ZM23.925 21.935V13.259H26.679V15.077C26.823 14.453 27.117 13.973 27.561 13.637C28.017 13.289 28.521 13.115 29.073 13.115C29.361 13.115 29.601 13.139 29.793 13.187V15.743C29.469 15.707 29.193 15.689 28.965 15.689C27.441 15.689 26.679 16.655 26.679 18.587V21.935H23.925ZM37.2542 13.259H40.0082V21.341C40.0082 23.021 39.4502 24.251 38.3342 25.031C37.6022 25.547 36.5702 25.805 35.2382 25.805C33.9302 25.805 32.8862 25.571 32.1062 25.103C31.6622 24.827 31.2962 24.473 31.0082 24.041C30.7202 23.609 30.5702 23.159 30.5582 22.691H33.3662C33.4982 23.423 34.1102 23.789 35.2022 23.789C36.5702 23.789 37.2542 23.087 37.2542 21.683V20.531C37.0382 20.951 36.6722 21.293 36.1562 21.557C35.6522 21.809 35.1122 21.935 34.5362 21.935C33.2762 21.935 32.2742 21.527 31.5302 20.711C30.7862 19.883 30.4142 18.815 30.4142 17.507C30.4142 16.211 30.7982 15.143 31.5662 14.303C32.3342 13.451 33.3362 13.025 34.5722 13.025C35.1722 13.025 35.7122 13.163 36.1922 13.439C36.6842 13.703 37.0382 14.057 37.2542 14.501V13.259ZM35.2922 19.811C35.9282 19.811 36.4322 19.595 36.8042 19.163C37.1882 18.731 37.3802 18.191 37.3802 17.543C37.3802 16.895 37.1882 16.355 36.8042 15.923C36.4322 15.491 35.9282 15.275 35.2922 15.275C34.6802 15.275 34.1822 15.491 33.7982 15.923C33.4262 16.343 33.2402 16.883 33.2402 17.543C33.2402 18.203 33.4262 18.749 33.7982 19.181C34.1822 19.601 34.6802 19.811 35.2922 19.811ZM45.7326 22.169C44.4726 22.169 43.4766 21.743 42.7446 20.891C42.0126 20.039 41.6466 18.941 41.6466 17.597C41.6466 16.277 42.0246 15.185 42.7806 14.321C43.5366 13.457 44.5326 13.025 45.7686 13.025C46.3806 13.025 46.9266 13.157 47.4066 13.421C47.8866 13.685 48.2466 14.045 48.4866 14.501V13.259H51.2226V21.935H48.4866V20.711C48.2466 21.143 47.8746 21.497 47.3706 21.773C46.8786 22.037 46.3326 22.169 45.7326 22.169ZM46.5246 19.883C47.1846 19.883 47.6946 19.667 48.0546 19.235C48.4146 18.803 48.5946 18.257 48.5946 17.597C48.5946 16.949 48.4146 16.409 48.0546 15.977C47.6946 15.545 47.1846 15.329 46.5246 15.329C45.9006 15.329 45.3966 15.539 45.0126 15.959C44.6406 16.379 44.4546 16.925 44.4546 17.597C44.4546 18.269 44.6406 18.821 45.0126 19.253C45.3966 19.673 45.9006 19.883 46.5246 19.883ZM53.509 21.935V13.259H56.263V14.519C56.779 13.523 57.715 13.025 59.071 13.025C61.183 13.025 62.239 14.207 62.239 16.571V21.935H59.467V17.471C59.467 16.727 59.347 16.187 59.107 15.851C58.879 15.515 58.489 15.347 57.937 15.347C56.821 15.347 56.263 16.031 56.263 17.399V21.935H53.509ZM67.0526 11.999C66.7286 12.323 66.3206 12.485 65.8286 12.485C65.3366 12.485 64.9286 12.323 64.6046 11.999C64.2926 11.675 64.1366 11.279 64.1366 10.811C64.1366 10.331 64.2926 9.92903 64.6046 9.60503C64.9286 9.28103 65.3366 9.11903 65.8286 9.11903C66.3206 9.11903 66.7286 9.28703 67.0526 9.62303C67.3766 9.94703 67.5386 10.343 67.5386 10.811C67.5386 11.279 67.3766 11.675 67.0526 11.999ZM64.4426 21.935V13.259H67.1966V21.935H64.4426ZM68.4259 21.935L72.6919 15.545H68.8399V13.259H76.8679L72.6739 19.667H76.5439V21.935H68.4259ZM86.3164 17.147C86.3164 17.507 86.2924 17.909 86.2444 18.353H79.8364C79.8604 18.917 80.0524 19.355 80.4124 19.667C80.7724 19.979 81.2584 20.135 81.8704 20.135C82.7104 20.135 83.2504 19.865 83.4904 19.325H86.1904C86.0584 20.177 85.5904 20.873 84.7864 21.413C83.9944 21.941 83.0224 22.205 81.8704 22.205C80.3944 22.205 79.2304 21.797 78.3784 20.981C77.5264 20.165 77.1004 19.037 77.1004 17.597C77.1004 16.181 77.5264 15.065 78.3784 14.249C79.2304 13.421 80.3644 13.007 81.7804 13.007C83.1244 13.007 84.2164 13.391 85.0564 14.159C85.8964 14.927 86.3164 15.923 86.3164 17.147ZM79.8364 16.643H83.5984C83.5864 16.067 83.4244 15.623 83.1124 15.311C82.8004 14.999 82.3504 14.843 81.7624 14.843C81.1744 14.843 80.7064 15.011 80.3584 15.347C80.0224 15.671 79.8484 16.103 79.8364 16.643Z" fill="#1E293B"/>
</svg>
