<svg width="119" height="32" viewBox="0 0 119 32" fill="none" xmlns="http://www.w3.org/2000/svg">
<rect x="50.5" y="1.43503" width="67.068" height="29" fill="#9F77E2" stroke="#1E293B"/>
<path d="M52 0.0431442H49V3.04314H52V0.0431442Z" fill="#1E293B"/>
<path d="M52 29H49V32H52V29Z" fill="#1E293B"/>
<path d="M119 29H116V32H119V29Z" fill="#1E293B"/>
<path d="M119 0.0431442H116V3.04314H119V0.0431442Z" fill="#1E293B"/>
<path d="M5.364 22.295C3.816 22.295 2.604 21.905 1.728 21.125C0.852 20.333 0.414 19.229 0.414 17.813H3.33C3.33 18.497 3.51 19.031 3.87 19.415C4.242 19.799 4.746 19.991 5.382 19.991C5.922 19.991 6.336 19.871 6.624 19.631C6.924 19.391 7.074 19.049 7.074 18.605C7.074 18.221 6.96 17.915 6.732 17.687C6.516 17.447 6.12 17.213 5.544 16.985L3.276 16.103C1.572 15.467 0.72 14.321 0.72 12.665C0.72 11.549 1.122 10.655 1.926 9.98303C2.742 9.31103 3.834 8.97503 5.202 8.97503C6.594 8.97503 7.71 9.34103 8.55 10.073C9.39 10.793 9.81 11.759 9.81 12.971H6.894C6.894 12.383 6.744 11.933 6.444 11.621C6.144 11.309 5.712 11.153 5.148 11.153C4.68 11.153 4.308 11.267 4.032 11.495C3.768 11.711 3.636 12.011 3.636 12.395C3.636 12.743 3.768 13.043 4.032 13.295C4.296 13.535 4.74 13.781 5.364 14.033L7.452 14.861C9.144 15.521 9.99 16.703 9.99 18.407C9.99 19.583 9.564 20.525 8.712 21.233C7.872 21.941 6.756 22.295 5.364 22.295ZM15.1017 22.169C13.8417 22.169 12.8457 21.743 12.1137 20.891C11.3817 20.039 11.0157 18.941 11.0157 17.597C11.0157 16.277 11.3937 15.185 12.1497 14.321C12.9057 13.457 13.9017 13.025 15.1377 13.025C15.7497 13.025 16.2957 13.157 16.7757 13.421C17.2557 13.685 17.6157 14.045 17.8557 14.501V13.259H20.5917V21.935H17.8557V20.711C17.6157 21.143 17.2437 21.497 16.7397 21.773C16.2477 22.037 15.7017 22.169 15.1017 22.169ZM15.8937 19.883C16.5537 19.883 17.0637 19.667 17.4237 19.235C17.7837 18.803 17.9637 18.257 17.9637 17.597C17.9637 16.949 17.7837 16.409 17.4237 15.977C17.0637 15.545 16.5537 15.329 15.8937 15.329C15.2697 15.329 14.7657 15.539 14.3817 15.959C14.0097 16.379 13.8237 16.925 13.8237 17.597C13.8237 18.269 14.0097 18.821 14.3817 19.253C14.7657 19.673 15.2697 19.883 15.8937 19.883ZM22.8781 21.935V9.33503H25.6321V21.935H22.8781ZM36.4375 17.147C36.4375 17.507 36.4135 17.909 36.3655 18.353H29.9575C29.9815 18.917 30.1735 19.355 30.5335 19.667C30.8935 19.979 31.3795 20.135 31.9915 20.135C32.8315 20.135 33.3715 19.865 33.6115 19.325H36.3115C36.1795 20.177 35.7115 20.873 34.9075 21.413C34.1155 21.941 33.1435 22.205 31.9915 22.205C30.5155 22.205 29.3515 21.797 28.4995 20.981C27.6475 20.165 27.2215 19.037 27.2215 17.597C27.2215 16.181 27.6475 15.065 28.4995 14.249C29.3515 13.421 30.4855 13.007 31.9015 13.007C33.2455 13.007 34.3375 13.391 35.1775 14.159C36.0175 14.927 36.4375 15.923 36.4375 17.147ZM29.9575 16.643H33.7195C33.7075 16.067 33.5455 15.623 33.2335 15.311C32.9215 14.999 32.4715 14.843 31.8835 14.843C31.2955 14.843 30.8275 15.011 30.4795 15.347C30.1435 15.671 29.9695 16.103 29.9575 16.643ZM41.5221 22.205C40.2741 22.205 39.2781 21.935 38.5341 21.395C37.7901 20.855 37.4181 20.165 37.4181 19.325H40.1541C40.1541 19.625 40.2861 19.871 40.5501 20.063C40.8141 20.255 41.1561 20.351 41.5761 20.351C41.8761 20.351 42.1161 20.279 42.2961 20.135C42.4881 19.991 42.5841 19.793 42.5841 19.541C42.5841 19.145 42.3741 18.899 41.9541 18.803L39.8301 18.263C39.1221 18.083 38.5821 17.777 38.2101 17.345C37.8381 16.913 37.6521 16.385 37.6521 15.761C37.6521 14.945 37.9881 14.285 38.6601 13.781C39.3321 13.265 40.2321 13.007 41.3601 13.007C42.6081 13.007 43.5621 13.247 44.2221 13.727C44.8941 14.207 45.2301 14.867 45.2301 15.707H42.5121C42.5121 15.407 42.4041 15.173 42.1881 15.005C41.9841 14.837 41.6961 14.753 41.3241 14.753C41.0241 14.753 40.7841 14.819 40.6041 14.951C40.4241 15.083 40.3341 15.257 40.3341 15.473C40.3341 15.857 40.5801 16.115 41.0721 16.247L43.1241 16.805C43.8081 16.985 44.3421 17.285 44.7261 17.705C45.1221 18.113 45.3201 18.617 45.3201 19.217C45.3201 20.117 44.9781 20.843 44.2941 21.395C43.6221 21.935 42.6981 22.205 41.5221 22.205ZM65.7564 13.889C65.7564 14.801 65.5464 15.617 65.1264 16.337C64.7064 17.045 64.1304 17.579 63.3984 17.939L65.6124 21.935H62.3004L60.3204 18.443H58.7904V21.935H55.8744V9.33503H61.2384C62.5464 9.33503 63.6264 9.76703 64.4784 10.631C65.3304 11.483 65.7564 12.569 65.7564 13.889ZM58.7904 11.711V16.067H60.7884C61.3764 16.067 61.8564 15.863 62.2284 15.455C62.6124 15.047 62.8044 14.525 62.8044 13.889C62.8044 13.253 62.6124 12.731 62.2284 12.323C61.8564 11.915 61.3764 11.711 60.7884 11.711H58.7904ZM75.8476 17.147C75.8476 17.507 75.8236 17.909 75.7756 18.353H69.3676C69.3916 18.917 69.5836 19.355 69.9436 19.667C70.3036 19.979 70.7896 20.135 71.4016 20.135C72.2416 20.135 72.7816 19.865 73.0216 19.325H75.7216C75.5896 20.177 75.1216 20.873 74.3176 21.413C73.5256 21.941 72.5536 22.205 71.4016 22.205C69.9256 22.205 68.7616 21.797 67.9096 20.981C67.0576 20.165 66.6316 19.037 66.6316 17.597C66.6316 16.181 67.0576 15.065 67.9096 14.249C68.7616 13.421 69.8956 13.007 71.3116 13.007C72.6556 13.007 73.7476 13.391 74.5876 14.159C75.4276 14.927 75.8476 15.923 75.8476 17.147ZM69.3676 16.643H73.1296C73.1176 16.067 72.9556 15.623 72.6436 15.311C72.3316 14.999 71.8816 14.843 71.2936 14.843C70.7056 14.843 70.2376 15.011 69.8896 15.347C69.5536 15.671 69.3796 16.103 69.3676 16.643ZM83.0031 13.025C84.1911 13.025 85.1511 13.445 85.8831 14.285C86.6271 15.125 86.9991 16.229 86.9991 17.597C86.9991 18.953 86.6211 20.057 85.8651 20.909C85.1091 21.749 84.1311 22.169 82.9311 22.169C82.3071 22.169 81.7491 22.031 81.2571 21.755C80.7651 21.479 80.4051 21.131 80.1771 20.711V25.535H77.4231V13.259H80.1771V14.501C80.4051 14.069 80.7771 13.715 81.2931 13.439C81.8091 13.163 82.3791 13.025 83.0031 13.025ZM82.1391 19.883C82.7391 19.883 83.2311 19.673 83.6151 19.253C83.9991 18.821 84.1911 18.269 84.1911 17.597C84.1911 16.925 83.9991 16.379 83.6151 15.959C83.2311 15.539 82.7391 15.329 82.1391 15.329C81.5151 15.329 81.0111 15.539 80.6271 15.959C80.2431 16.379 80.0511 16.925 80.0511 17.597C80.0511 18.281 80.2431 18.833 80.6271 19.253C81.0231 19.673 81.5271 19.883 82.1391 19.883ZM96.3402 20.909C95.4762 21.773 94.3122 22.205 92.8482 22.205C91.3842 22.205 90.2142 21.773 89.3382 20.909C88.4622 20.045 88.0242 18.941 88.0242 17.597C88.0242 16.253 88.4622 15.155 89.3382 14.303C90.2142 13.439 91.3842 13.007 92.8482 13.007C94.3122 13.007 95.4762 13.439 96.3402 14.303C97.2162 15.155 97.6542 16.253 97.6542 17.597C97.6542 18.941 97.2162 20.045 96.3402 20.909ZM92.8482 19.865C93.4842 19.865 93.9882 19.655 94.3602 19.235C94.7322 18.815 94.9182 18.269 94.9182 17.597C94.9182 16.925 94.7322 16.379 94.3602 15.959C93.9882 15.539 93.4842 15.329 92.8482 15.329C92.2002 15.329 91.6902 15.539 91.3182 15.959C90.9582 16.379 90.7782 16.925 90.7782 17.597C90.7782 18.269 90.9582 18.815 91.3182 19.235C91.6902 19.655 92.2002 19.865 92.8482 19.865ZM99.2375 21.935V13.259H101.992V15.077C102.136 14.453 102.43 13.973 102.874 13.637C103.33 13.289 103.834 13.115 104.386 13.115C104.674 13.115 104.914 13.139 105.106 13.187V15.743C104.782 15.707 104.506 15.689 104.278 15.689C102.754 15.689 101.992 16.655 101.992 18.587V21.935H99.2375ZM111.491 19.793C111.875 19.793 112.193 19.775 112.445 19.739V21.935C111.917 22.031 111.305 22.079 110.609 22.079C110.297 22.079 110.021 22.061 109.781 22.025C109.541 21.989 109.271 21.911 108.971 21.791C108.671 21.659 108.425 21.485 108.233 21.269C108.041 21.053 107.873 20.741 107.729 20.333C107.597 19.925 107.531 19.445 107.531 18.893V15.437H106.163V13.259H107.531V10.685H110.285V13.259H112.247V15.437H110.285V18.317C110.285 18.905 110.387 19.301 110.591 19.505C110.795 19.697 111.095 19.793 111.491 19.793Z" fill="#1E293B"/>
</svg>
