<svg width="104" height="32" viewBox="0 0 104 32" fill="none" xmlns="http://www.w3.org/2000/svg">
<rect x="1.5" y="1.43503" width="54.8037" height="29" fill="#28DCA6" stroke="#1E293B"/>
<path d="M3 0.0431442H0V3.04314H3V0.0431442Z" fill="#1E293B"/>
<path d="M3 29H0V32H3V29Z" fill="#1E293B"/>
<path d="M57.6877 29H54.6877V32H57.6877V29Z" fill="#1E293B"/>
<path d="M57.6877 0.0431442H54.6877V3.04314H57.6877V0.0431442Z" fill="#1E293B"/>
<path d="M11.364 22.295C9.816 22.295 8.604 21.905 7.728 21.125C6.852 20.333 6.414 19.229 6.414 17.813H9.33C9.33 18.497 9.51 19.031 9.87 19.415C10.242 19.799 10.746 19.991 11.382 19.991C11.922 19.991 12.336 19.871 12.624 19.631C12.924 19.391 13.074 19.049 13.074 18.605C13.074 18.221 12.96 17.915 12.732 17.687C12.516 17.447 12.12 17.213 11.544 16.985L9.276 16.103C7.572 15.467 6.72 14.321 6.72 12.665C6.72 11.549 7.122 10.655 7.926 9.98303C8.742 9.31103 9.834 8.97503 11.202 8.97503C12.594 8.97503 13.71 9.34103 14.55 10.073C15.39 10.793 15.81 11.759 15.81 12.971H12.894C12.894 12.383 12.744 11.933 12.444 11.621C12.144 11.309 11.712 11.153 11.148 11.153C10.68 11.153 10.308 11.267 10.032 11.495C9.768 11.711 9.636 12.011 9.636 12.395C9.636 12.743 9.768 13.043 10.032 13.295C10.296 13.535 10.74 13.781 11.364 14.033L13.452 14.861C15.144 15.521 15.99 16.703 15.99 18.407C15.99 19.583 15.564 20.525 14.712 21.233C13.872 21.941 12.756 22.295 11.364 22.295ZM21.1017 22.169C19.8417 22.169 18.8457 21.743 18.1137 20.891C17.3817 20.039 17.0157 18.941 17.0157 17.597C17.0157 16.277 17.3937 15.185 18.1497 14.321C18.9057 13.457 19.9017 13.025 21.1377 13.025C21.7497 13.025 22.2957 13.157 22.7757 13.421C23.2557 13.685 23.6157 14.045 23.8557 14.501V13.259H26.5917V21.935H23.8557V20.711C23.6157 21.143 23.2437 21.497 22.7397 21.773C22.2477 22.037 21.7017 22.169 21.1017 22.169ZM21.8937 19.883C22.5537 19.883 23.0637 19.667 23.4237 19.235C23.7837 18.803 23.9637 18.257 23.9637 17.597C23.9637 16.949 23.7837 16.409 23.4237 15.977C23.0637 15.545 22.5537 15.329 21.8937 15.329C21.2697 15.329 20.7657 15.539 20.3817 15.959C20.0097 16.379 19.8237 16.925 19.8237 17.597C19.8237 18.269 20.0097 18.821 20.3817 19.253C20.7657 19.673 21.2697 19.883 21.8937 19.883ZM28.8781 21.935V9.33503H31.6321V21.935H28.8781ZM42.4375 17.147C42.4375 17.507 42.4135 17.909 42.3655 18.353H35.9575C35.9815 18.917 36.1735 19.355 36.5335 19.667C36.8935 19.979 37.3795 20.135 37.9915 20.135C38.8315 20.135 39.3715 19.865 39.6115 19.325H42.3115C42.1795 20.177 41.7115 20.873 40.9075 21.413C40.1155 21.941 39.1435 22.205 37.9915 22.205C36.5155 22.205 35.3515 21.797 34.4995 20.981C33.6475 20.165 33.2215 19.037 33.2215 17.597C33.2215 16.181 33.6475 15.065 34.4995 14.249C35.3515 13.421 36.4855 13.007 37.9015 13.007C39.2455 13.007 40.3375 13.391 41.1775 14.159C42.0175 14.927 42.4375 15.923 42.4375 17.147ZM35.9575 16.643H39.7195C39.7075 16.067 39.5455 15.623 39.2335 15.311C38.9215 14.999 38.4715 14.843 37.8835 14.843C37.2955 14.843 36.8275 15.011 36.4795 15.347C36.1435 15.671 35.9695 16.103 35.9575 16.643ZM47.5221 22.205C46.2741 22.205 45.2781 21.935 44.5341 21.395C43.7901 20.855 43.4181 20.165 43.4181 19.325H46.1541C46.1541 19.625 46.2861 19.871 46.5501 20.063C46.8141 20.255 47.1561 20.351 47.5761 20.351C47.8761 20.351 48.1161 20.279 48.2961 20.135C48.4881 19.991 48.5841 19.793 48.5841 19.541C48.5841 19.145 48.3741 18.899 47.9541 18.803L45.8301 18.263C45.1221 18.083 44.5821 17.777 44.2101 17.345C43.8381 16.913 43.6521 16.385 43.6521 15.761C43.6521 14.945 43.9881 14.285 44.6601 13.781C45.3321 13.265 46.2321 13.007 47.3601 13.007C48.6081 13.007 49.5621 13.247 50.2221 13.727C50.8941 14.207 51.2301 14.867 51.2301 15.707H48.5121C48.5121 15.407 48.4041 15.173 48.1881 15.005C47.9841 14.837 47.6961 14.753 47.3241 14.753C47.0241 14.753 46.7841 14.819 46.6041 14.951C46.4241 15.083 46.3341 15.257 46.3341 15.473C46.3341 15.857 46.5801 16.115 47.0721 16.247L49.1241 16.805C49.8081 16.985 50.3421 17.285 50.7261 17.705C51.1221 18.113 51.3201 18.617 51.3201 19.217C51.3201 20.117 50.9781 20.843 50.2941 21.395C49.6221 21.935 48.6981 22.205 47.5221 22.205ZM66.0144 22.295C64.4664 22.295 63.2544 21.905 62.3784 21.125C61.5024 20.333 61.0644 19.229 61.0644 17.813H63.9804C63.9804 18.497 64.1604 19.031 64.5204 19.415C64.8924 19.799 65.3964 19.991 66.0324 19.991C66.5724 19.991 66.9864 19.871 67.2744 19.631C67.5744 19.391 67.7244 19.049 67.7244 18.605C67.7244 18.221 67.6104 17.915 67.3824 17.687C67.1664 17.447 66.7704 17.213 66.1944 16.985L63.9264 16.103C62.2224 15.467 61.3704 14.321 61.3704 12.665C61.3704 11.549 61.7724 10.655 62.5764 9.98303C63.3924 9.31103 64.4844 8.97503 65.8524 8.97503C67.2444 8.97503 68.3604 9.34103 69.2004 10.073C70.0404 10.793 70.4604 11.759 70.4604 12.971H67.5444C67.5444 12.383 67.3944 11.933 67.0944 11.621C66.7944 11.309 66.3624 11.153 65.7984 11.153C65.3304 11.153 64.9584 11.267 64.6824 11.495C64.4184 11.711 64.2864 12.011 64.2864 12.395C64.2864 12.743 64.4184 13.043 64.6824 13.295C64.9464 13.535 65.3904 13.781 66.0144 14.033L68.1024 14.861C69.7944 15.521 70.6404 16.703 70.6404 18.407C70.6404 19.583 70.2144 20.525 69.3624 21.233C68.5224 21.941 67.4064 22.295 66.0144 22.295ZM76.7446 19.793C77.1286 19.793 77.4466 19.775 77.6986 19.739V21.935C77.1706 22.031 76.5586 22.079 75.8626 22.079C75.5506 22.079 75.2746 22.061 75.0346 22.025C74.7946 21.989 74.5246 21.911 74.2246 21.791C73.9246 21.659 73.6786 21.485 73.4866 21.269C73.2946 21.053 73.1266 20.741 72.9826 20.333C72.8506 19.925 72.7846 19.445 72.7846 18.893V15.437H71.4166V13.259H72.7846V10.685H75.5386V13.259H77.5006V15.437H75.5386V18.317C75.5386 18.905 75.6406 19.301 75.8446 19.505C76.0486 19.697 76.3486 19.793 76.7446 19.793ZM82.6779 22.169C81.4179 22.169 80.4219 21.743 79.6899 20.891C78.9579 20.039 78.5919 18.941 78.5919 17.597C78.5919 16.277 78.9699 15.185 79.7259 14.321C80.4819 13.457 81.4779 13.025 82.7139 13.025C83.3259 13.025 83.8719 13.157 84.3519 13.421C84.8319 13.685 85.1919 14.045 85.4319 14.501V13.259H88.1679V21.935H85.4319V20.711C85.1919 21.143 84.8199 21.497 84.3159 21.773C83.8239 22.037 83.2779 22.169 82.6779 22.169ZM83.4699 19.883C84.1299 19.883 84.6399 19.667 84.9999 19.235C85.3599 18.803 85.5399 18.257 85.5399 17.597C85.5399 16.949 85.3599 16.409 84.9999 15.977C84.6399 15.545 84.1299 15.329 83.4699 15.329C82.8459 15.329 82.3419 15.539 81.9579 15.959C81.5859 16.379 81.3999 16.925 81.3999 17.597C81.3999 18.269 81.5859 18.821 81.9579 19.253C82.3419 19.673 82.8459 19.883 83.4699 19.883ZM91.1743 12.413C91.1743 11.777 91.2763 11.237 91.4803 10.793C91.6843 10.337 91.9543 10.001 92.2903 9.78503C92.6263 9.56903 92.9623 9.41303 93.2983 9.31703C93.6343 9.22103 93.9883 9.17303 94.3603 9.17303C94.9963 9.17303 95.5243 9.23903 95.9443 9.37103V11.333C95.8843 11.333 95.7643 11.327 95.5843 11.315C95.4163 11.291 95.2843 11.279 95.1883 11.279C94.3483 11.279 93.9283 11.645 93.9283 12.377V13.259H95.9443V15.437H93.9283V21.935H91.1743V15.437H89.6263V13.259H91.1743V12.413ZM102.442 11.279C101.602 11.279 101.182 11.645 101.182 12.377V13.259H103.198V15.437H101.182V21.935H98.4283V15.437H96.8803V13.259H98.4283V12.413C98.4283 11.777 98.5303 11.237 98.7343 10.793C98.9383 10.337 99.2083 10.001 99.5443 9.78503C99.8803 9.56903 100.216 9.41303 100.552 9.31703C100.888 9.22103 101.242 9.17303 101.614 9.17303C102.25 9.17303 102.778 9.23903 103.198 9.37103V11.333C103.138 11.333 103.018 11.327 102.838 11.315C102.67 11.291 102.538 11.279 102.442 11.279Z" fill="#1E293B"/>
</svg>
