<svg width="73" height="32" viewBox="0 0 73 32" fill="none" xmlns="http://www.w3.org/2000/svg">
<rect x="1.5" y="1.43503" width="15.605" height="29" fill="#FFC351" stroke="#1E293B"/>
<path d="M3 0.0431442H0V3.04314H3V0.0431442Z" fill="#1E293B"/>
<path d="M3 29H0V32H3V29Z" fill="#1E293B"/>
<path d="M18.5935 29H15.5935V32H18.5935V29Z" fill="#1E293B"/>
<path d="M18.5935 0.0431442H15.5935V3.04314H18.5935V0.0431442Z" fill="#1E293B"/>
<path d="M9.364 22.295C7.816 22.295 6.604 21.905 5.728 21.125C4.852 20.333 4.414 19.229 4.414 17.813H7.33C7.33 18.497 7.51 19.031 7.87 19.415C8.242 19.799 8.746 19.991 9.382 19.991C9.922 19.991 10.336 19.871 10.624 19.631C10.924 19.391 11.074 19.049 11.074 18.605C11.074 18.221 10.96 17.915 10.732 17.687C10.516 17.447 10.12 17.213 9.544 16.985L7.276 16.103C5.572 15.467 4.72 14.321 4.72 12.665C4.72 11.549 5.122 10.655 5.926 9.98303C6.742 9.31103 7.834 8.97503 9.202 8.97503C10.594 8.97503 11.71 9.34103 12.55 10.073C13.39 10.793 13.81 11.759 13.81 12.971H10.894C10.894 12.383 10.744 11.933 10.444 11.621C10.144 11.309 9.712 11.153 9.148 11.153C8.68 11.153 8.308 11.267 8.032 11.495C7.768 11.711 7.636 12.011 7.636 12.395C7.636 12.743 7.768 13.043 8.032 13.295C8.296 13.535 8.74 13.781 9.364 14.033L11.452 14.861C13.144 15.521 13.99 16.703 13.99 18.407C13.99 19.583 13.564 20.525 12.712 21.233C11.872 21.941 10.756 22.295 9.364 22.295ZM28.5019 17.147C28.5019 17.507 28.4779 17.909 28.4299 18.353H22.0219C22.0459 18.917 22.2379 19.355 22.5979 19.667C22.9579 19.979 23.4439 20.135 24.0559 20.135C24.8959 20.135 25.4359 19.865 25.6759 19.325H28.3759C28.2439 20.177 27.7759 20.873 26.9719 21.413C26.1799 21.941 25.2079 22.205 24.0559 22.205C22.5799 22.205 21.4159 21.797 20.5639 20.981C19.7119 20.165 19.2859 19.037 19.2859 17.597C19.2859 16.181 19.7119 15.065 20.5639 14.249C21.4159 13.421 22.5499 13.007 23.9659 13.007C25.3099 13.007 26.4019 13.391 27.2419 14.159C28.0819 14.927 28.5019 15.923 28.5019 17.147ZM22.0219 16.643H25.7839C25.7719 16.067 25.6099 15.623 25.2979 15.311C24.9859 14.999 24.5359 14.843 23.9479 14.843C23.3599 14.843 22.8919 15.011 22.5439 15.347C22.2079 15.671 22.0339 16.103 22.0219 16.643ZM30.0774 21.935V13.259H32.8314V15.077C32.9754 14.453 33.2694 13.973 33.7134 13.637C34.1694 13.289 34.6734 13.115 35.2254 13.115C35.5134 13.115 35.7534 13.139 35.9454 13.187V15.743C35.6214 15.707 35.3454 15.689 35.1174 15.689C33.5934 15.689 32.8314 16.655 32.8314 18.587V21.935H30.0774ZM40.4029 21.935L36.6589 13.259H39.7009L41.6449 18.713L43.5889 13.259H46.6489L42.8869 21.935H40.4029ZM50.3358 11.999C50.0118 12.323 49.6038 12.485 49.1118 12.485C48.6198 12.485 48.2118 12.323 47.8878 11.999C47.5758 11.675 47.4198 11.279 47.4198 10.811C47.4198 10.331 47.5758 9.92903 47.8878 9.60503C48.2118 9.28103 48.6198 9.11903 49.1118 9.11903C49.6038 9.11903 50.0118 9.28703 50.3358 9.62303C50.6598 9.94703 50.8218 10.343 50.8218 10.811C50.8218 11.279 50.6598 11.675 50.3358 11.999ZM47.7258 21.935V13.259H50.4798V21.935H47.7258ZM56.7131 22.205C55.2971 22.205 54.1691 21.785 53.3291 20.945C52.4891 20.093 52.0691 18.977 52.0691 17.597C52.0691 16.217 52.4891 15.107 53.3291 14.267C54.1691 13.427 55.2971 13.007 56.7131 13.007C57.9971 13.007 59.0411 13.325 59.8451 13.961C60.6491 14.597 61.1051 15.461 61.2131 16.553H58.4591C58.2551 15.737 57.6791 15.329 56.7311 15.329C56.1311 15.329 55.6631 15.527 55.3271 15.923C54.9911 16.319 54.8231 16.877 54.8231 17.597C54.8231 18.317 54.9911 18.875 55.3271 19.271C55.6631 19.667 56.1311 19.865 56.7311 19.865C57.6791 19.865 58.2551 19.481 58.4591 18.713H61.2131C61.1051 19.781 60.6491 20.633 59.8451 21.269C59.0411 21.893 57.9971 22.205 56.7131 22.205ZM71.6211 17.147C71.6211 17.507 71.5971 17.909 71.5491 18.353H65.1411C65.1651 18.917 65.3571 19.355 65.7171 19.667C66.0771 19.979 66.5631 20.135 67.1751 20.135C68.0151 20.135 68.5551 19.865 68.7951 19.325H71.4951C71.3631 20.177 70.8951 20.873 70.0911 21.413C69.2991 21.941 68.3271 22.205 67.1751 22.205C65.6991 22.205 64.5351 21.797 63.6831 20.981C62.8311 20.165 62.4051 19.037 62.4051 17.597C62.4051 16.181 62.8311 15.065 63.6831 14.249C64.5351 13.421 65.6691 13.007 67.0851 13.007C68.4291 13.007 69.5211 13.391 70.3611 14.159C71.2011 14.927 71.6211 15.923 71.6211 17.147ZM65.1411 16.643H68.9031C68.8911 16.067 68.7291 15.623 68.4171 15.311C68.1051 14.999 67.6551 14.843 67.0671 14.843C66.4791 14.843 66.0111 15.011 65.6631 15.347C65.3271 15.671 65.1531 16.103 65.1411 16.643Z" fill="#1E293B"/>
</svg>
