<svg width="78" height="32" viewBox="0 0 78 32" fill="none" xmlns="http://www.w3.org/2000/svg">
<rect x="1.5" y="1.43503" width="15.605" height="29" fill="#DF135C" stroke="#1E293B"/>
<path d="M3 0.0431442H0V3.04314H3V0.0431442Z" fill="#1E293B"/>
<path d="M3 29H0V32H3V29Z" fill="#1E293B"/>
<path d="M18.5935 29H15.5935V32H18.5935V29Z" fill="#1E293B"/>
<path d="M18.5935 0.0431442H15.5935V3.04314H18.5935V0.0431442Z" fill="#1E293B"/>
<path d="M9.364 22.295C7.816 22.295 6.604 21.905 5.728 21.125C4.852 20.333 4.414 19.229 4.414 17.813H7.33C7.33 18.497 7.51 19.031 7.87 19.415C8.242 19.799 8.746 19.991 9.382 19.991C9.922 19.991 10.336 19.871 10.624 19.631C10.924 19.391 11.074 19.049 11.074 18.605C11.074 18.221 10.96 17.915 10.732 17.687C10.516 17.447 10.12 17.213 9.544 16.985L7.276 16.103C5.572 15.467 4.72 14.321 4.72 12.665C4.72 11.549 5.122 10.655 5.926 9.98303C6.742 9.31103 7.834 8.97503 9.202 8.97503C10.594 8.97503 11.71 9.34103 12.55 10.073C13.39 10.793 13.81 11.759 13.81 12.971H10.894C10.894 12.383 10.744 11.933 10.444 11.621C10.144 11.309 9.712 11.153 9.148 11.153C8.68 11.153 8.308 11.267 8.032 11.495C7.768 11.711 7.636 12.011 7.636 12.395C7.636 12.743 7.768 13.043 8.032 13.295C8.296 13.535 8.74 13.781 9.364 14.033L11.452 14.861C13.144 15.521 13.99 16.703 13.99 18.407C13.99 19.583 13.564 20.525 12.712 21.233C11.872 21.941 10.756 22.295 9.364 22.295ZM23.0839 22.169C22.0519 22.169 21.2599 21.863 20.7079 21.251C20.1559 20.627 19.8799 19.751 19.8799 18.623V13.259H22.6699V18.011C22.6699 19.235 23.1499 19.847 24.1099 19.847C25.2259 19.847 25.7839 19.205 25.7839 17.921V13.259H28.5199V21.935H25.7839V20.693C25.2679 21.677 24.3679 22.169 23.0839 22.169ZM36.3781 13.025C37.5661 13.025 38.5261 13.445 39.2581 14.285C40.0021 15.125 40.3741 16.229 40.3741 17.597C40.3741 18.953 39.9961 20.057 39.2401 20.909C38.4841 21.749 37.5061 22.169 36.3061 22.169C35.6821 22.169 35.1241 22.031 34.6321 21.755C34.1401 21.479 33.7801 21.131 33.5521 20.711V25.535H30.7981V13.259H33.5521V14.501C33.7801 14.069 34.1521 13.715 34.6681 13.439C35.1841 13.163 35.7541 13.025 36.3781 13.025ZM35.5141 19.883C36.1141 19.883 36.6061 19.673 36.9901 19.253C37.3741 18.821 37.5661 18.269 37.5661 17.597C37.5661 16.925 37.3741 16.379 36.9901 15.959C36.6061 15.539 36.1141 15.329 35.5141 15.329C34.8901 15.329 34.3861 15.539 34.0021 15.959C33.6181 16.379 33.4261 16.925 33.4261 17.597C33.4261 18.281 33.6181 18.833 34.0021 19.253C34.3981 19.673 34.9021 19.883 35.5141 19.883ZM47.6105 13.025C48.7985 13.025 49.7585 13.445 50.4905 14.285C51.2345 15.125 51.6065 16.229 51.6065 17.597C51.6065 18.953 51.2285 20.057 50.4725 20.909C49.7165 21.749 48.7385 22.169 47.5385 22.169C46.9145 22.169 46.3565 22.031 45.8645 21.755C45.3725 21.479 45.0125 21.131 44.7845 20.711V25.535H42.0305V13.259H44.7845V14.501C45.0125 14.069 45.3845 13.715 45.9005 13.439C46.4165 13.163 46.9865 13.025 47.6105 13.025ZM46.7465 19.883C47.3465 19.883 47.8385 19.673 48.2225 19.253C48.6065 18.821 48.7985 18.269 48.7985 17.597C48.7985 16.925 48.6065 16.379 48.2225 15.959C47.8385 15.539 47.3465 15.329 46.7465 15.329C46.1225 15.329 45.6185 15.539 45.2345 15.959C44.8505 16.379 44.6585 16.925 44.6585 17.597C44.6585 18.281 44.8505 18.833 45.2345 19.253C45.6305 19.673 46.1345 19.883 46.7465 19.883ZM60.9476 20.909C60.0836 21.773 58.9196 22.205 57.4556 22.205C55.9916 22.205 54.8216 21.773 53.9456 20.909C53.0696 20.045 52.6316 18.941 52.6316 17.597C52.6316 16.253 53.0696 15.155 53.9456 14.303C54.8216 13.439 55.9916 13.007 57.4556 13.007C58.9196 13.007 60.0836 13.439 60.9476 14.303C61.8236 15.155 62.2616 16.253 62.2616 17.597C62.2616 18.941 61.8236 20.045 60.9476 20.909ZM57.4556 19.865C58.0916 19.865 58.5956 19.655 58.9676 19.235C59.3396 18.815 59.5256 18.269 59.5256 17.597C59.5256 16.925 59.3396 16.379 58.9676 15.959C58.5956 15.539 58.0916 15.329 57.4556 15.329C56.8076 15.329 56.2976 15.539 55.9256 15.959C55.5656 16.379 55.3856 16.925 55.3856 17.597C55.3856 18.269 55.5656 18.815 55.9256 19.235C56.2976 19.655 56.8076 19.865 57.4556 19.865ZM63.8449 21.935V13.259H66.5989V15.077C66.7429 14.453 67.0369 13.973 67.4809 13.637C67.9369 13.289 68.4409 13.115 68.9929 13.115C69.2809 13.115 69.5209 13.139 69.7129 13.187V15.743C69.3889 15.707 69.1129 15.689 68.8849 15.689C67.3609 15.689 66.5989 16.655 66.5989 18.587V21.935H63.8449ZM76.0982 19.793C76.4822 19.793 76.8002 19.775 77.0522 19.739V21.935C76.5242 22.031 75.9122 22.079 75.2162 22.079C74.9042 22.079 74.6282 22.061 74.3882 22.025C74.1482 21.989 73.8782 21.911 73.5782 21.791C73.2782 21.659 73.0322 21.485 72.8402 21.269C72.6482 21.053 72.4802 20.741 72.3362 20.333C72.2042 19.925 72.1382 19.445 72.1382 18.893V15.437H70.7702V13.259H72.1382V10.685H74.8922V13.259H76.8542V15.437H74.8922V18.317C74.8922 18.905 74.9942 19.301 75.1982 19.505C75.4022 19.697 75.7022 19.793 76.0982 19.793Z" fill="#1E293B"/>
</svg>
