<svg width="111" height="32" viewBox="0 0 111 32" fill="none" xmlns="http://www.w3.org/2000/svg">
<rect x="1.5" y="1.43503" width="23.9899" height="29" fill="#28DCA6" stroke="#1E293B"/>
<path d="M3 0.0431442H0V3.04314H3V0.0431442Z" fill="#1E293B"/>
<path d="M3 29H0V32H3V29Z" fill="#1E293B"/>
<path d="M27 29H24V32H27V29Z" fill="#1E293B"/>
<path d="M27 0.0431442H24V3.04314H27V0.0431442Z" fill="#1E293B"/>
<path d="M8.392 21.935L3.946 9.33503H7.006L9.634 17.705L12.136 9.33503H14.404L16.906 17.705L19.534 9.33503H22.594L18.148 21.935H15.772L13.27 14.015L10.768 21.935H8.392ZM30.6659 11.999C30.3419 12.323 29.9339 12.485 29.4419 12.485C28.9499 12.485 28.5419 12.323 28.2179 11.999C27.9059 11.675 27.7499 11.279 27.7499 10.811C27.7499 10.331 27.9059 9.92903 28.2179 9.60503C28.5419 9.28103 28.9499 9.11903 29.4419 9.11903C29.9339 9.11903 30.3419 9.28703 30.6659 9.62303C30.9899 9.94703 31.1519 10.343 31.1519 10.811C31.1519 11.279 30.9899 11.675 30.6659 11.999ZM28.0559 21.935V13.259H30.8099V21.935H28.0559ZM37.6372 19.793C38.0212 19.793 38.3392 19.775 38.5912 19.739V21.935C38.0632 22.031 37.4512 22.079 36.7552 22.079C36.4432 22.079 36.1672 22.061 35.9272 22.025C35.6872 21.989 35.4172 21.911 35.1172 21.791C34.8172 21.659 34.5712 21.485 34.3792 21.269C34.1872 21.053 34.0192 20.741 33.8752 20.333C33.7432 19.925 33.6772 19.445 33.6772 18.893V15.437H32.3092V13.259H33.6772V10.685H36.4312V13.259H38.3932V15.437H36.4312V18.317C36.4312 18.905 36.5332 19.301 36.7372 19.505C36.9412 19.697 37.2412 19.793 37.6372 19.793ZM45.7292 13.025C47.8412 13.025 48.8972 14.207 48.8972 16.571V21.935H46.1252V17.471C46.1252 16.727 46.0052 16.187 45.7652 15.851C45.5372 15.515 45.1472 15.347 44.5952 15.347C43.4792 15.347 42.9212 16.031 42.9212 17.399V21.935H40.1672V9.33503H42.9212V14.519C43.4372 13.523 44.3732 13.025 45.7292 13.025ZM57.2928 9.33503H60.0468V21.935H57.3108V20.711C57.0708 21.143 56.6988 21.497 56.1948 21.773C55.7028 22.037 55.1568 22.169 54.5568 22.169C53.2968 22.169 52.3008 21.743 51.5688 20.891C50.8368 20.039 50.4708 18.941 50.4708 17.597C50.4708 16.277 50.8488 15.185 51.6048 14.321C52.3608 13.457 53.3568 13.025 54.5928 13.025C55.2048 13.025 55.7508 13.157 56.2308 13.421C56.7108 13.685 57.0708 14.045 57.3108 14.501V13.763H57.2928V9.33503ZM55.3488 19.883C56.0088 19.883 56.5188 19.667 56.8788 19.235C57.2388 18.803 57.4188 18.257 57.4188 17.597C57.4188 16.949 57.2388 16.409 56.8788 15.977C56.5188 15.545 56.0088 15.329 55.3488 15.329C54.7248 15.329 54.2208 15.539 53.8368 15.959C53.4648 16.379 53.2788 16.925 53.2788 17.597C53.2788 18.269 53.4648 18.821 53.8368 19.253C54.2208 19.673 54.7248 19.883 55.3488 19.883ZM62.3332 21.935V13.259H65.0872V15.077C65.2312 14.453 65.5252 13.973 65.9692 13.637C66.4252 13.289 66.9292 13.115 67.4812 13.115C67.7692 13.115 68.0092 13.139 68.2012 13.187V15.743C67.8772 15.707 67.6012 15.689 67.3732 15.689C65.8492 15.689 65.0872 16.655 65.0872 18.587V21.935H62.3332ZM72.9084 22.169C71.6484 22.169 70.6524 21.743 69.9204 20.891C69.1884 20.039 68.8224 18.941 68.8224 17.597C68.8224 16.277 69.2004 15.185 69.9564 14.321C70.7124 13.457 71.7084 13.025 72.9444 13.025C73.5564 13.025 74.1024 13.157 74.5824 13.421C75.0624 13.685 75.4224 14.045 75.6624 14.501V13.259H78.3984V21.935H75.6624V20.711C75.4224 21.143 75.0504 21.497 74.5464 21.773C74.0544 22.037 73.5084 22.169 72.9084 22.169ZM73.7004 19.883C74.3604 19.883 74.8704 19.667 75.2304 19.235C75.5904 18.803 75.7704 18.257 75.7704 17.597C75.7704 16.949 75.5904 16.409 75.2304 15.977C74.8704 15.545 74.3604 15.329 73.7004 15.329C73.0764 15.329 72.5724 15.539 72.1884 15.959C71.8164 16.379 71.6304 16.925 71.6304 17.597C71.6304 18.269 71.8164 18.821 72.1884 19.253C72.5724 19.673 73.0764 19.883 73.7004 19.883ZM82.7368 21.935L79.6048 13.259H82.4848L84.0508 18.515L85.5268 13.259H88.2088L89.6848 18.515L91.2508 13.259H94.1128L90.9988 21.935H88.5328L86.8588 16.661L85.2028 21.935H82.7368ZM98.4318 22.169C97.1718 22.169 96.1758 21.743 95.4438 20.891C94.7118 20.039 94.3458 18.941 94.3458 17.597C94.3458 16.277 94.7238 15.185 95.4798 14.321C96.2358 13.457 97.2318 13.025 98.4678 13.025C99.0798 13.025 99.6258 13.157 100.106 13.421C100.586 13.685 100.946 14.045 101.186 14.501V13.259H103.922V21.935H101.186V20.711C100.946 21.143 100.574 21.497 100.07 21.773C99.5778 22.037 99.0318 22.169 98.4318 22.169ZM99.2238 19.883C99.8838 19.883 100.394 19.667 100.754 19.235C101.114 18.803 101.294 18.257 101.294 17.597C101.294 16.949 101.114 16.409 100.754 15.977C100.394 15.545 99.8838 15.329 99.2238 15.329C98.5998 15.329 98.0958 15.539 97.7118 15.959C97.3398 16.379 97.1538 16.925 97.1538 17.597C97.1538 18.269 97.3398 18.821 97.7118 19.253C98.0958 19.673 98.5998 19.883 99.2238 19.883ZM106.208 21.935V9.33503H108.962V21.935H106.208Z" fill="#1E293B"/>
</svg>
