<svg width="24" height="24" viewBox="0 0 24 24" fill="none" xmlns="http://www.w3.org/2000/svg">
<path fill-rule="evenodd" clip-rule="evenodd" d="M1.71429 4.28573C1.71429 3.33895 2.48181 2.57144 3.42858 2.57144H20.5714C21.5182 2.57144 22.2857 3.33895 22.2857 4.28573V21.4286C22.2857 22.3754 21.5182 23.1429 20.5714 23.1429H3.42858C2.48181 23.1429 1.71429 22.3754 1.71429 21.4286V4.28573ZM20.5714 4.28573H3.42858V21.4286H20.5714V4.28573Z" fill="#2C1F63"/>
<path fill-rule="evenodd" clip-rule="evenodd" d="M17.1428 0.857147C17.6162 0.857147 18 1.2409 18 1.71429V5.14286C18 5.61625 17.6162 6 17.1428 6C16.6695 6 16.2857 5.61625 16.2857 5.14286V1.71429C16.2857 1.2409 16.6695 0.857147 17.1428 0.857147Z" fill="#2C1F63"/>
<path fill-rule="evenodd" clip-rule="evenodd" d="M6.85714 0.857147C7.33053 0.857147 7.71429 1.2409 7.71429 1.71429V5.14286C7.71429 5.61625 7.33053 6 6.85714 6C6.38376 6 6 5.61625 6 5.14286V1.71429C6 1.2409 6.38376 0.857147 6.85714 0.857147Z" fill="#2C1F63"/>
<path fill-rule="evenodd" clip-rule="evenodd" d="M1.71429 8.57144C1.71429 8.09805 2.09805 7.71429 2.57144 7.71429H21.4286C21.902 7.71429 22.2857 8.09805 22.2857 8.57144C22.2857 9.04482 21.902 9.42858 21.4286 9.42858H2.57144C2.09805 9.42858 1.71429 9.04482 1.71429 8.57144Z" fill="#2C1F63"/>
<path fill-rule="evenodd" clip-rule="evenodd" d="M16.481 12.2694C16.8056 12.6139 16.7895 13.1564 16.4449 13.481L11.4414 18.1953C11.1104 18.5071 10.5936 18.5062 10.2637 18.1933L7.55295 15.6219C7.2095 15.2961 7.1952 14.7535 7.52099 14.4101C7.84679 14.0667 8.38931 14.0523 8.73275 14.3781L10.8556 16.3919L15.2693 12.2333C15.6139 11.9087 16.1564 11.9248 16.481 12.2694Z" fill="#2C1F63"/>
</svg>
