<svg width="24" height="24" viewBox="0 0 24 24" fill="none" xmlns="http://www.w3.org/2000/svg">
<path fill-rule="evenodd" clip-rule="evenodd" d="M7.85822 2.52454C8.01719 2.28608 8.28481 2.14285 8.5714 2.14285H15.4285C15.7151 2.14285 15.9828 2.28608 16.1417 2.52454L17.6016 4.71428H20.5714C21.2534 4.71428 21.9074 4.9852 22.3897 5.46744C22.8719 5.94967 23.1428 6.60372 23.1428 7.28571V19.2857C23.1428 19.9677 22.8719 20.6217 22.3897 21.104C21.9074 21.5862 21.2534 21.8571 20.5714 21.8571H3.42855C2.74656 21.8571 2.09251 21.5862 1.61027 21.104C1.12803 20.6217 0.857117 19.9677 0.857117 19.2857V7.28571C0.857117 6.60372 1.12803 5.94967 1.61027 5.46744C2.09251 4.9852 2.74656 4.71428 3.42855 4.71428H6.39839L7.85822 2.52454ZM9.03013 3.85714L7.5703 6.04688C7.41133 6.28534 7.14371 6.42857 6.85712 6.42857H3.42855C3.20122 6.42857 2.9832 6.51887 2.82245 6.67962C2.66171 6.84036 2.5714 7.05838 2.5714 7.28571V19.2857C2.5714 19.513 2.66171 19.7311 2.82245 19.8918C2.9832 20.0525 3.20122 20.1429 3.42855 20.1429H20.5714C20.7987 20.1429 21.0167 20.0525 21.1775 19.8918C21.3382 19.7311 21.4285 19.513 21.4285 19.2857V7.28571C21.4285 7.05838 21.3382 6.84036 21.1775 6.67962C21.0167 6.51887 20.7987 6.42857 20.5714 6.42857H17.1428C16.8562 6.42857 16.5886 6.28534 16.4296 6.04688L14.9698 3.85714H9.03013Z" fill="#2C1F63"/>
<path fill-rule="evenodd" clip-rule="evenodd" d="M8.36294 9.21773C9.32885 8.25556 10.6367 7.71533 12 7.71533C13.3634 7.71533 14.6712 8.25556 15.6371 9.21773L15.6495 9.23037L17.3316 10.9768C17.66 11.3177 17.6499 11.8604 17.3089 12.1888C16.968 12.5172 16.4253 12.507 16.0969 12.166L14.4213 10.4264C13.7773 9.78793 12.9071 9.42962 12 9.42962C11.0902 9.42962 10.2174 9.79014 9.57278 10.4323C9.23739 10.7663 8.69468 10.7653 8.3606 10.4299C8.02651 10.0945 8.02756 9.55181 8.36294 9.21773Z" fill="#2C1F63"/>
<path fill-rule="evenodd" clip-rule="evenodd" d="M6.69111 13.5255C7.03206 13.1971 7.57468 13.2073 7.90308 13.5482L9.57873 15.2879C10.2228 15.9263 11.093 16.2847 12 16.2847C12.9099 16.2847 13.7826 15.9241 14.4272 15.282C14.7626 14.9479 15.3053 14.949 15.6394 15.2844C15.9735 15.6197 15.9725 16.1625 15.6371 16.4965C14.6712 17.4587 13.3634 17.9989 12 17.9989C10.6367 17.9989 9.32886 17.4587 8.36296 16.4965L8.35053 16.4839L6.66839 14.7375C6.33998 14.3965 6.35016 13.8539 6.69111 13.5255Z" fill="#2C1F63"/>
<path fill-rule="evenodd" clip-rule="evenodd" d="M17.2838 8.15453C17.7507 8.23235 18.0662 8.67397 17.9883 9.14092L17.5598 11.7123C17.4996 12.0736 17.2165 12.3567 16.8552 12.4169L14.2838 12.8455C13.8168 12.9233 13.3752 12.6079 13.2974 12.1409C13.2196 11.674 13.535 11.2324 14.0019 11.1545L15.9695 10.8266L16.2974 8.85909C16.3752 8.39215 16.8168 8.0767 17.2838 8.15453Z" fill="#2C1F63"/>
<path fill-rule="evenodd" clip-rule="evenodd" d="M10.7026 13.5734C10.7804 14.0403 10.465 14.482 9.99801 14.5598L8.03049 14.8877L7.70257 16.8552C7.62475 17.3222 7.18313 17.6376 6.71618 17.5598C6.24923 17.482 5.93379 17.0403 6.01161 16.5734L6.44018 14.002C6.50039 13.6407 6.78349 13.3576 7.14475 13.2974L9.71618 12.8688C10.1831 12.791 10.6247 13.1064 10.7026 13.5734Z" fill="#2C1F63"/>
</svg>
