<svg width="24" height="24" viewBox="0 0 24 24" fill="none" xmlns="http://www.w3.org/2000/svg">
<path fill-rule="evenodd" clip-rule="evenodd" d="M2.57001 13.23C2.57001 12.7772 2.93714 12.41 3.39001 12.41H9.13002C9.58289 12.41 9.95 12.7772 9.95 13.23C9.95 13.6829 9.58289 14.05 9.13002 14.05H4.21001V20.61C4.21001 21.0629 3.84289 21.43 3.39001 21.43C2.93714 21.43 2.57001 21.0629 2.57001 20.61V13.23Z" fill="#2C1F63"/>
<path fill-rule="evenodd" clip-rule="evenodd" d="M0.929993 20.61C0.929993 20.1571 1.29712 19.79 1.74999 19.79H22.25C22.7029 19.79 23.07 20.1571 23.07 20.61C23.07 21.0629 22.7029 21.43 22.25 21.43H1.74999C1.29712 21.43 0.929993 21.0629 0.929993 20.61Z" fill="#2C1F63"/>
<path fill-rule="evenodd" clip-rule="evenodd" d="M8.31 8.30999C8.31 7.85712 8.67713 7.48999 9.13 7.48999H14.87C15.3229 7.48999 15.69 7.85712 15.69 8.30999C15.69 8.76287 15.3229 9.12999 14.87 9.12999H9.95V20.61C9.95 21.0629 9.58288 21.43 9.13 21.43C8.67713 21.43 8.31 21.0629 8.31 20.61V8.30999Z" fill="#2C1F63"/>
<path fill-rule="evenodd" clip-rule="evenodd" d="M14.05 3.39001C14.05 2.93714 14.4171 2.57001 14.87 2.57001H20.61C21.0629 2.57001 21.43 2.93714 21.43 3.39001V20.61C21.43 21.0629 21.0629 21.43 20.61 21.43H14.87C14.4171 21.43 14.05 21.0629 14.05 20.61V3.39001ZM15.69 4.21001V19.79H19.79V4.21001H15.69Z" fill="#2C1F63"/>
</svg>
