<svg width="24" height="24" viewBox="0 0 24 24" fill="none" xmlns="http://www.w3.org/2000/svg">
<path fill-rule="evenodd" clip-rule="evenodd" d="M2.64001 13.66C2.64001 13.2072 3.00714 12.84 3.46001 12.84H9.20002C9.65289 12.84 10.02 13.2072 10.02 13.66C10.02 14.1129 9.65289 14.48 9.20002 14.48H4.28001V21.04C4.28001 21.4929 3.91289 21.86 3.46001 21.86C3.00714 21.86 2.64001 21.4929 2.64001 21.04V13.66Z" fill="#2C1F63"/>
<path fill-rule="evenodd" clip-rule="evenodd" d="M1 21.04C1 20.5871 1.36713 20.22 1.82 20.22H22.32C22.7729 20.22 23.14 20.5871 23.14 21.04C23.14 21.4929 22.7729 21.86 22.32 21.86H1.82C1.36713 21.86 1 21.4929 1 21.04Z" fill="#2C1F63"/>
<path fill-rule="evenodd" clip-rule="evenodd" d="M8.38 8.73998C8.38 8.28711 8.74713 7.91998 9.2 7.91998H14.94C15.3929 7.91998 15.76 8.28711 15.76 8.73998C15.76 9.19286 15.3929 9.55998 14.94 9.55998H10.02V21.04C10.02 21.4929 9.65288 21.86 9.2 21.86C8.74713 21.86 8.38 21.4929 8.38 21.04V8.73998Z" fill="#2C1F63"/>
<path fill-rule="evenodd" clip-rule="evenodd" d="M14.12 3.82C14.12 3.36713 14.4871 3 14.94 3H20.68C21.1329 3 21.5 3.36713 21.5 3.82V21.04C21.5 21.4929 21.1329 21.86 20.68 21.86H14.94C14.4871 21.86 14.12 21.4929 14.12 21.04V3.82ZM15.76 4.64V20.22H19.86V4.64H15.76Z" fill="#2C1F63"/>
</svg>
