<svg width="24" height="24" viewBox="0 0 24 24" fill="none" xmlns="http://www.w3.org/2000/svg">
<path fill-rule="evenodd" clip-rule="evenodd" d="M19.9261 6.33488L22.229 10.7441L22.229 10.7441L22.2308 10.7476L20.5739 11.5727L18.2685 7.16365L19.9261 6.33488ZM22.5654 11.4183L22.8999 12.0901L20.5843 13.2432C20.2187 13.4253 19.7746 13.2813 19.5854 12.9194L16.5854 7.1819C16.4921 7.00354 16.4745 6.79518 16.5364 6.60367C16.5983 6.41216 16.7346 6.25357 16.9146 6.16356L19.2562 4.99276C19.6061 4.81543 20.0118 4.78313 20.3854 4.90296C20.7597 5.02302 21.0714 5.28607 21.2527 5.63482C21.2529 5.63516 21.253 5.6355 21.2532 5.63584L23.5567 10.0461C23.557 10.0468 23.5574 10.0475 23.5578 10.0482C23.6507 10.2244 23.7075 10.4174 23.725 10.6158C23.7426 10.8151 23.7201 11.0158 23.659 11.2062C23.5979 11.3966 23.4992 11.5729 23.369 11.7247C23.2387 11.8764 23.0794 12.0006 22.9004 12.0899L22.5654 11.4183Z" fill="#2C1F63"/>
<path fill-rule="evenodd" clip-rule="evenodd" d="M4.07782 6.23368L1.77306 10.6464L3.42675 11.4766L5.73194 7.06074L4.07782 6.23368ZM3.60753 4.80928C3.97876 4.6867 4.38318 4.71391 4.73465 4.88509L4.74167 4.88851L7.0854 6.06042C7.26535 6.15039 7.4016 6.30889 7.46355 6.50029C7.5255 6.6917 7.50795 6.89997 7.41485 7.07832L4.41485 12.8252C4.22532 13.1883 3.77954 13.3322 3.4135 13.1484L1.10057 11.9872C0.922635 11.8994 0.764011 11.777 0.634012 11.627C0.503105 11.476 0.403898 11.3002 0.342288 11.1101C0.280679 10.92 0.257926 10.7194 0.275381 10.5204C0.292748 10.3223 0.349561 10.1297 0.442465 9.95397L2.74715 5.54134C2.74728 5.5411 2.7474 5.54086 2.74753 5.54062C2.92802 5.19416 3.23655 4.93177 3.60753 4.80928Z" fill="#2C1F63"/>
<path fill-rule="evenodd" clip-rule="evenodd" d="M3.1588 12.0166C3.41369 11.6901 3.885 11.632 4.21151 11.8869L9.33963 15.89L9.35087 15.899L14.7505 17.2489C14.7564 17.2496 14.7624 17.2491 14.7682 17.2475C14.7739 17.2459 14.7793 17.2433 14.784 17.2397L18.1984 13.8253L19.6788 12.0858C19.9473 11.7703 20.4207 11.7323 20.7361 12.0007C21.0515 12.2692 21.0896 12.7425 20.8212 13.058L19.3212 14.8205C19.3081 14.8357 19.2945 14.8505 19.2803 14.8647L15.8303 18.3147C15.8271 18.3179 15.8238 18.3211 15.8206 18.3243C15.8178 18.3269 15.815 18.3296 15.8123 18.3322C15.6297 18.5029 15.4086 18.6268 15.1677 18.6933C14.9268 18.7599 14.6734 18.7671 14.4292 18.7143C14.4213 18.7126 14.4134 18.7108 14.4056 18.7089L8.9681 17.3495C8.96159 17.3478 8.95509 17.3461 8.94862 17.3443C8.7528 17.2897 8.57014 17.1959 8.41173 17.0686L3.2885 13.0693C2.96199 12.8144 2.90392 12.3431 3.1588 12.0166Z" fill="#2C1F63"/>
<path fill-rule="evenodd" clip-rule="evenodd" d="M13.4356 7.58439L9.7709 11.2398C9.77031 11.2405 9.76985 11.2414 9.76952 11.2423C9.76906 11.2435 9.76888 11.2449 9.76898 11.2462C9.76908 11.2475 9.76945 11.2488 9.77009 11.25C9.77072 11.2511 9.7716 11.2522 9.77265 11.253L10.2759 11.635C10.6658 11.9253 11.1389 12.0821 11.625 12.0821C12.1117 12.0821 12.5855 11.9249 12.9757 11.6339C12.9759 11.6337 12.9762 11.6335 12.9764 11.6333L14.175 10.7344C14.4384 10.5368 14.7998 10.5342 15.0661 10.7278L19.1911 13.7278C19.5261 13.9715 19.6002 14.4405 19.3565 14.7755C19.1129 15.1105 18.6439 15.1846 18.3089 14.9409L14.6318 12.2667L13.8736 12.8354C13.2241 13.3202 12.4354 13.5821 11.625 13.5821C10.8146 13.5821 10.0259 13.3202 9.37639 12.8354L9.37144 12.8317L8.86521 12.4473C8.69505 12.318 8.55393 12.1537 8.45192 11.9658C8.34991 11.778 8.28896 11.5706 8.27311 11.3575C8.25725 11.1443 8.28685 10.9302 8.35995 10.7293C8.43305 10.5285 8.54798 10.3454 8.69712 10.1923L8.70471 10.1846L12.3804 6.51837C12.5193 6.38011 12.6841 6.27062 12.8655 6.19615C13.0463 6.12187 13.24 6.0839 13.4355 6.08439C13.436 6.08439 13.4365 6.08439 13.437 6.08439L13.4344 6.83439V6.08439H13.4355H17.25C17.6642 6.08439 18 6.42017 18 6.83439C18 7.2486 17.6642 7.58439 17.25 7.58439H13.4356Z" fill="#2C1F63"/>
<path fill-rule="evenodd" clip-rule="evenodd" d="M11.8224 6.04594L15.0651 7.51734C15.4423 7.6885 15.8868 7.52147 16.058 7.14427C16.2291 6.76707 16.0621 6.32254 15.6849 6.15139L12.4412 4.67951L12.4401 4.67905C12.1161 4.53262 11.7507 4.50604 11.4089 4.60405L6.59577 6.01138C6.1982 6.12763 5.97015 6.54416 6.0864 6.94172C6.20265 7.33929 6.61917 7.56734 7.01674 7.4511L11.8224 6.04594Z" fill="#2C1F63"/>
<path fill-rule="evenodd" clip-rule="evenodd" d="M4.68341 16.7586C4.9548 16.4457 5.42848 16.412 5.7414 16.6834L7.85756 18.5187C7.85896 18.519 7.86035 18.5194 7.86174 18.5197L10.6836 19.2322C11.0852 19.3336 11.3286 19.7414 11.2272 20.143C11.1258 20.5446 10.718 20.788 10.3164 20.6866L7.50202 19.976C7.269 19.9214 7.05316 19.8098 6.87394 19.6511L4.75862 17.8166C4.4457 17.5452 4.41202 17.0715 4.68341 16.7586Z" fill="#2C1F63"/>
</svg>
