<svg width="24" height="24" viewBox="0 0 24 24" fill="none" xmlns="http://www.w3.org/2000/svg">
<path fill-rule="evenodd" clip-rule="evenodd" d="M4 22.4C4 21.9582 4.35817 21.6 4.8 21.6H19.2C19.6418 21.6 20 21.9582 20 22.4C20 22.8418 19.6418 23.2 19.2 23.2H4.8C4.35817 23.2 4 22.8418 4 22.4Z" fill="#2C1F63"/>
<path fill-rule="evenodd" clip-rule="evenodd" d="M12 7.20001C10.6745 7.20001 9.6 8.27452 9.6 9.60001C9.6 10.9255 10.6745 12 12 12C13.3255 12 14.4 10.9255 14.4 9.60001C14.4 8.27452 13.3255 7.20001 12 7.20001ZM8 9.60001C8 7.39087 9.79086 5.60001 12 5.60001C14.2091 5.60001 16 7.39087 16 9.60001C16 11.8091 14.2091 13.6 12 13.6C9.79086 13.6 8 11.8091 8 9.60001Z" fill="#2C1F63"/>
<path fill-rule="evenodd" clip-rule="evenodd" d="M12 2.39999C10.0905 2.39999 8.25911 3.15856 6.90884 4.50882C5.55858 5.85908 4.80001 7.69043 4.80001 9.59999C4.80001 12.9119 6.64949 15.9277 8.6037 18.175C9.57103 19.2875 10.5404 20.1844 11.2681 20.8029C11.5559 21.0476 11.805 21.2479 12 21.4C12.195 21.2479 12.4441 21.0476 12.7319 20.8029C13.4596 20.1844 14.429 19.2875 15.3963 18.175C17.3505 15.9277 19.2 12.9119 19.2 9.59999C19.2 7.69043 18.4414 5.85908 17.0912 4.50882C15.7409 3.15856 13.9096 2.39999 12 2.39999ZM12 22.4C11.5412 23.0554 11.541 23.0552 11.5408 23.055L11.5401 23.0546L11.5382 23.0533L11.5323 23.0491L11.512 23.0346C11.4947 23.0223 11.47 23.0045 11.4385 22.9815C11.3754 22.9354 11.2847 22.8683 11.1705 22.7809C10.942 22.6063 10.6186 22.3507 10.2319 22.022C9.45961 21.3656 8.429 20.4125 7.39633 19.2249C5.35053 16.8723 3.20001 13.488 3.20001 9.59999C3.20001 7.26608 4.12715 5.02777 5.77747 3.37745C7.42779 1.72713 9.66611 0.799988 12 0.799988C14.3339 0.799988 16.5722 1.72713 18.2226 3.37745C19.8729 5.02777 20.8 7.26608 20.8 9.59999C20.8 13.488 18.6495 16.8723 16.6037 19.2249C15.571 20.4125 14.5404 21.3656 13.7681 22.022C13.3814 22.3507 13.058 22.6063 12.8296 22.7809C12.7153 22.8683 12.6246 22.9354 12.5615 22.9815C12.53 23.0045 12.5053 23.0223 12.4881 23.0346L12.4677 23.0491L12.4618 23.0533L12.4599 23.0546L12.4593 23.055C12.459 23.0552 12.4588 23.0554 12 22.4ZM12 22.4L12.4588 23.0554C12.1833 23.2482 11.8167 23.2482 11.5412 23.0554L12 22.4Z" fill="#2C1F63"/>
</svg>
