<svg width="24" height="24" viewBox="0 0 24 24" fill="none" xmlns="http://www.w3.org/2000/svg">
<path d="M16.5 9C17.3284 9 18 8.32843 18 7.5C18 6.67157 17.3284 6 16.5 6C15.6716 6 15 6.67157 15 7.5C15 8.32843 15.6716 9 16.5 9Z" stroke="#2C1F63" stroke-width="1.5" stroke-linecap="round" stroke-linejoin="round"/>
<path d="M2 14.135C2.66733 14.045 3.33933 14.001 4.016 14.003C6.872 13.947 9.658 14.773 11.876 16.334C13.936 17.782 15.381 19.774 16 22M13.5 17.5C14.5 16.5 15.177 16.277 16 16" stroke="#2C1F63" stroke-width="1.5" stroke-linecap="round" stroke-linejoin="round"/>
<path d="M20 20.213C18.601 21.5 16.363 21.5 12 21.5C7.522 21.5 5.282 21.5 3.891 20.109C2.5 18.718 2.5 16.479 2.5 12C2.5 7.637 2.5 5.399 3.787 4M20 16C20.543 16 21.048 16.294 21.397 16.564C21.5 15.369 21.5 13.883 21.5 12C21.5 7.522 21.5 5.282 20.109 3.891C18.718 2.5 16.479 2.5 12 2.5C9.59 2.5 7.83 2.5 6.5 2.717M2 2L22 22" stroke="#2C1F63" stroke-width="1.5" stroke-linecap="round" stroke-linejoin="round"/>
</svg>
