<svg width="24" height="24" viewBox="0 0 24 24" fill="none" xmlns="http://www.w3.org/2000/svg">
<path fill-rule="evenodd" clip-rule="evenodd" d="M5.71429 9.85714C5.71429 9.38376 6.09805 9 6.57144 9H17.7143C18.1877 9 18.5714 9.38376 18.5714 9.85714C18.5714 10.3305 18.1877 10.7143 17.7143 10.7143H6.57144C6.09805 10.7143 5.71429 10.3305 5.71429 9.85714Z" fill="#2C1F63"/>
<path fill-rule="evenodd" clip-rule="evenodd" d="M5.71429 13.2857C5.71429 12.8123 6.09805 12.4286 6.57144 12.4286H17.7143C18.1877 12.4286 18.5714 12.8123 18.5714 13.2857C18.5714 13.7591 18.1877 14.1429 17.7143 14.1429H6.57144C6.09805 14.1429 5.71429 13.7591 5.71429 13.2857Z" fill="#2C1F63"/>
<path fill-rule="evenodd" clip-rule="evenodd" d="M1.5021 3.5021C1.82359 3.18061 2.25963 3 2.71429 3H21.5714C22.0261 3 22.4621 3.18061 22.7836 3.5021C23.1051 3.82359 23.2857 4.25963 23.2857 4.71429V21C23.2857 21.2971 23.1319 21.573 22.8792 21.7291C22.6265 21.8853 22.3109 21.8995 22.0452 21.7667L19 20.244L15.9548 21.7667C15.7134 21.8873 15.4294 21.8873 15.1881 21.7667L12.1429 20.244L9.09761 21.7667C8.8563 21.8873 8.57227 21.8873 8.33096 21.7667L5.28571 20.244L2.24047 21.7667C1.97476 21.8995 1.65922 21.8853 1.40652 21.7291C1.15382 21.573 1 21.2971 1 21V4.71429C1 4.25963 1.18061 3.82359 1.5021 3.5021ZM21.5714 4.71429L2.71429 4.71429L2.71429 19.6131L4.90239 18.5191C5.1437 18.3984 5.42773 18.3984 5.66904 18.5191L8.71429 20.0417L11.7595 18.5191C12.0008 18.3984 12.2849 18.3984 12.5262 18.5191L15.5714 20.0417L18.6167 18.5191C18.858 18.3984 19.142 18.3984 19.3833 18.5191L21.5714 19.6131V4.71429Z" fill="#2C1F63"/>
</svg>
