<svg width="24" height="24" viewBox="0 0 24 24" fill="none" xmlns="http://www.w3.org/2000/svg">
<path fill-rule="evenodd" clip-rule="evenodd" d="M5.57144 9.42855C5.57144 8.95517 5.9552 8.57141 6.42859 8.57141H17.5715C18.0449 8.57141 18.4286 8.95517 18.4286 9.42855C18.4286 9.90191 18.0449 10.2857 17.5715 10.2857H6.42859C5.9552 10.2857 5.57144 9.90191 5.57144 9.42855Z" fill="#2C1F63"/>
<path fill-rule="evenodd" clip-rule="evenodd" d="M5.57144 12.8571C5.57144 12.3837 5.9552 12 6.42859 12H17.5715C18.0449 12 18.4286 12.3837 18.4286 12.8571C18.4286 13.3305 18.0449 13.7143 17.5715 13.7143H6.42859C5.9552 13.7143 5.57144 13.3305 5.57144 12.8571Z" fill="#2C1F63"/>
<path fill-rule="evenodd" clip-rule="evenodd" d="M1.35925 3.07351C1.68074 2.75202 2.11678 2.57141 2.57144 2.57141H21.4285C21.8832 2.57141 22.3192 2.75202 22.6407 3.07351C22.9622 3.395 23.1428 3.83104 23.1428 4.2857V20.5714C23.1428 20.8685 22.989 21.1444 22.7363 21.3005C22.4836 21.4567 22.168 21.4709 21.9023 21.3381L18.8571 19.8154L15.8119 21.3381C15.5705 21.4587 15.2865 21.4587 15.0452 21.3381L12 19.8154L8.95476 21.3381C8.71345 21.4587 8.42942 21.4587 8.18811 21.3381L5.14286 19.8154L2.09762 21.3381C1.83191 21.4709 1.51637 21.4567 1.26367 21.3005C1.01097 21.1444 0.857147 20.8685 0.857147 20.5714V4.2857C0.857147 3.83104 1.03776 3.395 1.35925 3.07351ZM21.4285 4.2857H2.57144V19.1845L4.75954 18.0905C5.00085 17.9698 5.28488 17.9698 5.52619 18.0905L8.57144 19.6131L11.6166 18.0905C11.8579 17.9698 12.142 17.9698 12.3833 18.0905L15.4285 19.6131L18.4738 18.0905C18.7151 17.9698 18.9991 17.9698 19.2404 18.0905L21.4285 19.1845V4.2857Z" fill="#2C1F63"/>
</svg>
