<svg width="24" height="24" viewBox="0 0 24 24" fill="none" xmlns="http://www.w3.org/2000/svg">
<path fill-rule="evenodd" clip-rule="evenodd" d="M16.2857 2.57144C16.2857 2.09805 16.6695 1.71429 17.1428 1.71429H21.4286C21.9019 1.71429 22.2857 2.09805 22.2857 2.57144V6.85715C22.2857 7.33054 21.9019 7.71429 21.4286 7.71429C20.9552 7.71429 20.5714 7.33054 20.5714 6.85715V3.42858H17.1428C16.6695 3.42858 16.2857 3.04482 16.2857 2.57144Z" fill="#2C1F63"/>
<path fill-rule="evenodd" clip-rule="evenodd" d="M2.57144 16.2857C3.04482 16.2857 3.42858 16.6695 3.42858 17.1428V20.5714H6.85715C7.33054 20.5714 7.71429 20.9552 7.71429 21.4286C7.71429 21.9019 7.33054 22.2857 6.85715 22.2857H2.57144C2.09805 22.2857 1.71429 21.9019 1.71429 21.4286V17.1428C1.71429 16.6695 2.09805 16.2857 2.57144 16.2857Z" fill="#2C1F63"/>
<path fill-rule="evenodd" clip-rule="evenodd" d="M21.4286 16.2857C21.9019 16.2857 22.2857 16.6695 22.2857 17.1428V21.4286C22.2857 21.9019 21.9019 22.2857 21.4286 22.2857H17.1428C16.6695 22.2857 16.2857 21.9019 16.2857 21.4286C16.2857 20.9552 16.6695 20.5714 17.1428 20.5714H20.5714V17.1428C20.5714 16.6695 20.9552 16.2857 21.4286 16.2857Z" fill="#2C1F63"/>
<path fill-rule="evenodd" clip-rule="evenodd" d="M1.71429 2.57144C1.71429 2.09805 2.09805 1.71429 2.57144 1.71429H6.85715C7.33054 1.71429 7.71429 2.09805 7.71429 2.57144C7.71429 3.04482 7.33054 3.42858 6.85715 3.42858H3.42858V6.85715C3.42858 7.33054 3.04482 7.71429 2.57144 7.71429C2.09805 7.71429 1.71429 7.33054 1.71429 6.85715V2.57144Z" fill="#2C1F63"/>
<path fill-rule="evenodd" clip-rule="evenodd" d="M6 7.71429C6 6.76751 6.76751 6 7.71429 6H16.2857C17.2325 6 18 6.76751 18 7.71429V16.2857C18 17.2325 17.2325 18 16.2857 18H7.71429C6.76751 18 6 17.2325 6 16.2857V7.71429ZM16.2857 7.71429H7.71429V16.2857H16.2857V7.71429Z" fill="#2C1F63"/>
</svg>
