<svg width="24" height="24" viewBox="0 0 24 24" fill="none" xmlns="http://www.w3.org/2000/svg">
<path fill-rule="evenodd" clip-rule="evenodd" d="M11.359 1.69211C11.6006 1.6448 11.8501 1.65769 12.0856 1.72963C12.3209 1.80152 12.5349 1.9302 12.7087 2.1043C12.7088 2.1044 12.7086 2.10419 12.7087 2.1043L22.4934 11.889C22.6338 12.0271 22.7454 12.1917 22.8218 12.3732C22.8989 12.5563 22.9386 12.7529 22.9386 12.9516C22.9386 13.1502 22.8989 13.3468 22.8218 13.5299C22.7454 13.7114 22.6338 13.876 22.4934 14.0141L14.0141 22.4934C13.876 22.6338 13.7114 22.7454 13.5299 22.8218C13.3468 22.8989 13.1502 22.9386 12.9516 22.9386C12.7529 22.9386 12.5563 22.8989 12.3732 22.8218C12.1917 22.7454 12.0271 22.6338 11.889 22.4934L2.10461 12.709C2.1045 12.7089 2.10471 12.7091 2.10461 12.709C1.9305 12.5352 1.80152 12.3209 1.72963 12.0856C1.65769 11.8501 1.6448 11.6006 1.69211 11.359L1.69262 11.3564L3.202 3.79077C3.26129 3.49359 3.49359 3.26129 3.79077 3.202L11.3564 1.69262L11.5031 2.42813L11.359 1.69211ZM11.6472 3.16415L4.57509 4.57509L3.16415 11.6472L3.16471 11.6478L12.9516 21.4347L21.4347 12.9516L11.6472 3.16415Z" fill="#2C1F63"/>
<path d="M7.875 9C8.49632 9 9 8.49632 9 7.875C9 7.25368 8.49632 6.75 7.875 6.75C7.25368 6.75 6.75 7.25368 6.75 7.875C6.75 8.49632 7.25368 9 7.875 9Z" fill="#2C1F63"/>
</svg>
