<svg width="24" height="24" viewBox="0 0 24 24" fill="none" xmlns="http://www.w3.org/2000/svg">
<path fill-rule="evenodd" clip-rule="evenodd" d="M20.5562 12.1377C19.8794 11.7993 19.1329 11.6237 18.3763 11.625C17.962 11.6257 17.6257 11.2905 17.625 10.8763C17.6243 10.462 17.9595 10.1257 18.3737 10.125C19.3641 10.1234 20.3412 10.3531 21.227 10.796C22.1128 11.239 22.8829 11.8827 23.4758 12.676C23.7237 13.0078 23.6558 13.4778 23.324 13.7258C22.9922 13.9737 22.5222 13.9058 22.2742 13.574C21.8213 12.9679 21.2329 12.4761 20.5562 12.1377Z" fill="#2C1F63"/>
<path fill-rule="evenodd" clip-rule="evenodd" d="M5.62374 11.625C4.86709 11.6237 4.12061 11.7993 3.44384 12.1377C2.76707 12.4761 2.17873 12.9679 1.72575 13.574C1.47778 13.9058 1.00779 13.9737 0.676004 13.7258C0.344218 13.4778 0.276274 13.0078 0.524247 12.676C1.11714 11.8827 1.88721 11.239 2.77302 10.796C3.65883 10.3531 4.63589 10.1234 5.62625 10.125C6.04047 10.1257 6.37569 10.462 6.375 10.8763C6.37431 11.2905 6.03796 11.6257 5.62374 11.625Z" fill="#2C1F63"/>
<path fill-rule="evenodd" clip-rule="evenodd" d="M12 17.6274C11.0149 17.6274 10.0495 17.9041 9.21396 18.426C8.37839 18.9478 7.7062 19.6939 7.27394 20.5791C7.09219 20.9513 6.64312 21.1057 6.27091 20.924C5.8987 20.7422 5.7443 20.2931 5.92605 19.9209C6.48158 18.7832 7.34549 17.8244 8.41936 17.1537C9.49323 16.483 10.7339 16.1274 12 16.1274C13.2661 16.1274 14.5068 16.483 15.5806 17.1537C16.6545 17.8244 17.5184 18.7832 18.0739 19.9209C18.2557 20.2931 18.1013 20.7422 17.7291 20.924C17.3569 21.1057 16.9078 20.9513 16.726 20.5791C16.2938 19.6939 15.6216 18.9478 14.786 18.426C13.9505 17.9041 12.9851 17.6274 12 17.6274Z" fill="#2C1F63"/>
<path fill-rule="evenodd" clip-rule="evenodd" d="M6.18076 5.6955C5.76709 5.58944 5.33178 5.60329 4.92569 5.73544C4.51961 5.86759 4.15951 6.11258 3.88749 6.44178C3.61546 6.77098 3.44274 7.1708 3.38951 7.59452C3.33627 8.01823 3.40472 8.44835 3.58686 8.83461C3.76899 9.22088 4.05729 9.54733 4.41806 9.77583C4.77884 10.0043 5.19719 10.1254 5.62424 10.125C6.03845 10.1246 6.37458 10.46 6.375 10.8742C6.37542 11.2885 6.03998 11.6246 5.62576 11.625C4.91402 11.6257 4.21676 11.4239 3.61547 11.043C3.01417 10.6622 2.53368 10.1181 2.23012 9.47436C1.92656 8.83059 1.81248 8.11372 1.90121 7.40753C1.98994 6.70133 2.2778 6.03497 2.73118 5.4863C3.18455 4.93763 3.78471 4.52932 4.46152 4.30907C5.13833 4.08882 5.86385 4.06573 6.55329 4.24249C7.24274 4.41926 7.86765 4.78858 8.35499 5.30731C8.84234 5.82604 9.172 6.47275 9.30545 7.17187C9.38312 7.57874 9.11624 7.97153 8.70938 8.0492C8.30251 8.12686 7.90972 7.85999 7.83205 7.45312C7.75198 7.03365 7.55419 6.64562 7.26178 6.33439C6.96937 6.02315 6.59443 5.80156 6.18076 5.6955Z" fill="#2C1F63"/>
<path fill-rule="evenodd" clip-rule="evenodd" d="M19.0743 5.73544C18.6682 5.60329 18.2329 5.58944 17.8192 5.6955C17.4056 5.80156 17.0306 6.02315 16.7382 6.33439C16.4458 6.64562 16.248 7.03365 16.1679 7.45312C16.0903 7.85999 15.6975 8.12686 15.2906 8.0492C14.8838 7.97153 14.6169 7.57874 14.6945 7.17187C14.828 6.47275 15.1577 5.82604 15.645 5.30731C16.1323 4.78858 16.7573 4.41926 17.4467 4.24249C18.1361 4.06573 18.8617 4.08882 19.5385 4.30907C20.2153 4.52932 20.8154 4.93763 21.2688 5.4863C21.7222 6.03497 22.0101 6.70133 22.0988 7.40753C22.1875 8.11373 22.0734 8.83059 21.7699 9.47436C21.4663 10.1181 20.9858 10.6622 20.3845 11.043C19.7832 11.4239 19.086 11.6257 18.3742 11.625C17.96 11.6246 17.6246 11.2885 17.625 10.8742C17.6254 10.46 17.9615 10.1246 18.3758 10.125C18.8028 10.1254 19.2212 10.0043 19.5819 9.77583C19.9427 9.54733 20.231 9.22088 20.4131 8.83461C20.5953 8.44835 20.6637 8.01823 20.6105 7.59452C20.5573 7.1708 20.3845 6.77098 20.1125 6.44178C19.8405 6.11258 19.4804 5.86759 19.0743 5.73544Z" fill="#2C1F63"/>
<path fill-rule="evenodd" clip-rule="evenodd" d="M12 10.125C10.3431 10.125 9 11.4681 9 13.125C9 14.7819 10.3431 16.125 12 16.125C13.6569 16.125 15 14.7819 15 13.125C15 11.4681 13.6569 10.125 12 10.125ZM7.5 13.125C7.5 10.6397 9.51472 8.625 12 8.625C14.4853 8.625 16.5 10.6397 16.5 13.125C16.5 15.6103 14.4853 17.625 12 17.625C9.51472 17.625 7.5 15.6103 7.5 13.125Z" fill="#2C1F63"/>
</svg>
