<svg width="24" height="24" viewBox="0 0 24 24" fill="none" xmlns="http://www.w3.org/2000/svg">
<path fill-rule="evenodd" clip-rule="evenodd" d="M3.45 3.90001C3.2113 3.90001 2.98239 3.99483 2.8136 4.16361C2.64482 4.33239 2.55 4.56131 2.55 4.80001C2.55 5.0387 2.64482 5.26762 2.8136 5.4364C2.98239 5.60518 3.21131 5.70001 3.45 5.70001H21.45C21.9274 5.70001 22.3852 5.88965 22.7228 6.22721C23.0604 6.56478 23.25 7.02262 23.25 7.50001V20.1C23.25 20.5774 23.0604 21.0352 22.7228 21.3728C22.3852 21.7104 21.9274 21.9 21.45 21.9H3.45C2.73392 21.9 2.04716 21.6155 1.54081 21.1092C1.03446 20.6028 0.75 19.9161 0.75 19.2V4.80001C0.75 4.08392 1.03446 3.39717 1.54081 2.89082C2.04716 2.38447 2.73392 2.10001 3.45 2.10001H18.75C19.2471 2.10001 19.65 2.50295 19.65 3.00001C19.65 3.49706 19.2471 3.90001 18.75 3.90001H3.45ZM2.55 7.34559V19.2C2.55 19.4387 2.64482 19.6676 2.8136 19.8364C2.98239 20.0052 3.21131 20.1 3.45 20.1H21.45V7.50001H3.45C3.14045 7.50001 2.83638 7.44685 2.55 7.34559Z" fill="#2C1F63"/>
<path d="M17.4 15.15C18.1456 15.15 18.75 14.5456 18.75 13.8C18.75 13.0544 18.1456 12.45 17.4 12.45C16.6544 12.45 16.05 13.0544 16.05 13.8C16.05 14.5456 16.6544 15.15 17.4 15.15Z" fill="#2C1F63"/>
</svg>
